<svg width="247" height="68" viewBox="0 0 247 68" fill="none" xmlns="http://www.w3.org/2000/svg">
<g clip-path="url(#clip0_211_25)">
<path d="M49.2215 67.2969C49.2215 67.1597 49.4245 66.2705 49.6726 65.321C50.3092 62.8848 52.9206 52.9466 55.6588 42.539C56.9423 37.6607 57.9535 33.6288 57.906 33.579C57.8282 33.4977 53.2578 32.743 52.7818 32.7329C52.6737 32.7306 52.548 32.627 52.5023 32.5027C52.3923 32.2028 64.4945 0.95862 64.8207 0.700428C65.019 0.543468 68.1233 0.5 79.1347 0.5C92.308 0.5 93.2147 0.517712 93.4993 0.780599C93.8825 1.13448 119.04 57.2069 118.913 57.4227C118.852 57.5261 113.801 57.5818 104.494 57.5818H90.169L89.8789 56.9805C89.7193 56.6498 87.9154 52.3386 85.87 47.4001C83.8247 42.4615 82.0736 38.3352 81.9785 38.2305C81.8474 38.0858 80.7914 38.9093 77.589 41.6534C75.1039 43.7828 73.3722 45.3777 73.3722 45.5369C73.3722 45.6856 74.776 48.3802 76.4917 51.5251C78.2074 54.6699 79.565 57.3212 79.5085 57.4168C79.4363 57.5388 76.4456 57.5865 69.4473 57.5771L59.4888 57.5638L54.5727 62.5033C51.8689 65.2201 49.5587 67.4662 49.4391 67.4947C49.3194 67.5232 49.2215 67.4342 49.2215 67.2969ZM55.4664 61.2964C57.7625 58.9888 59.7326 57.1008 59.8442 57.1008C59.9558 57.1008 60.1167 57.1735 60.2017 57.2624C60.4133 57.4836 79.154 57.4034 79.224 57.1809C79.2518 57.0928 77.8639 54.4259 76.1397 51.2547C73.6572 46.6887 73.0415 45.4425 73.1813 45.2664C73.2783 45.1441 75.2526 43.4174 77.5686 41.4292C80.6538 38.7807 81.8369 37.8526 81.9943 37.9573C82.1125 38.0359 82.5381 38.8939 82.9401 39.864C83.342 40.8341 85.1051 45.0911 86.858 49.3242C88.6109 53.5572 90.1537 57.1108 90.2865 57.221C90.6489 57.5218 118.506 57.5137 118.616 57.2128C118.659 57.098 117.527 54.4102 116.102 51.24C114.677 48.0698 109.043 35.5187 103.582 23.3488C98.1204 11.1788 93.5828 1.13098 93.498 1.02029C93.376 0.860913 90.3742 0.82755 79.0713 0.859947L64.7987 0.900855L60.605 11.7239C58.2985 17.6767 55.5811 24.6926 54.5663 27.3149C53.5515 29.9372 52.7501 32.174 52.7854 32.2855C52.8265 32.4155 53.7807 32.6332 55.444 32.8921C57.8384 33.2648 58.0421 33.3225 58.0857 33.6404C58.1118 33.8298 56.7877 39.0957 55.1434 45.3423C50.2686 63.8615 49.5282 66.7178 49.5282 67.0019C49.5282 67.1839 49.8169 66.9809 50.4099 66.3822C50.8948 65.8926 53.1702 63.6039 55.4664 61.2964ZM47.9464 58.5038C47.8332 58.2172 45.8484 53.0225 43.5359 46.96C41.2233 40.8976 39.288 35.937 39.2353 35.9365C39.1826 35.936 37.0489 40.6797 34.4937 46.4781C31.9385 52.2765 29.7438 57.149 29.6165 57.306C29.406 57.5656 29.1553 57.5831 26.8446 57.5003C22.7064 57.3521 9.1355 56.9553 4.75348 56.8544C0.305439 56.7521 0 56.7218 0 56.3842C0 56.2581 1.23267 53.3553 2.73926 49.9335C4.24585 46.5118 6.25582 41.9444 7.20586 39.7838C13.407 25.681 23.1628 3.52891 23.3935 3.02725C23.6042 2.569 23.78 2.41013 24.1399 2.35269C24.3989 2.31136 29.0959 2.16346 34.5777 2.02402C40.0595 1.88458 46.6836 1.70297 49.2979 1.62044C53.7072 1.48124 54.07 1.49038 54.3126 1.74682C54.8074 2.26984 58.2684 7.44801 58.2684 7.66528C58.2684 7.93315 58.2914 7.88108 53.3652 18.779C45.5593 36.0473 44.5994 38.2215 44.7248 38.3492C44.7944 38.4201 46.669 38.8229 48.8905 39.2442C51.112 39.6656 53.0406 40.0953 53.1764 40.1991C53.3975 40.3682 53.1792 41.3243 51.0701 49.4257C49.7759 54.3966 48.6556 58.5899 48.5805 58.7443C48.3771 59.1623 48.1765 59.0862 47.9464 58.5038ZM50.841 49.5376C52.7757 42.1332 53.1633 40.4757 52.9918 40.3405C52.8768 40.2498 50.9151 39.8237 48.6325 39.3935C46.35 38.9633 44.454 38.5324 44.4193 38.436C44.3846 38.3395 45.3349 36.096 46.5311 33.4503C54.5575 15.6983 58.1156 7.77865 58.1153 7.66603C58.115 7.48921 54.4854 2.18643 54.1881 1.92845C53.994 1.76 52.0988 1.77324 43.8806 2.00043C25.6822 2.50354 24.0236 2.5684 23.8171 2.78502C23.6536 2.95644 18.6984 14.1613 3.35301 49.059C1.6721 52.8817 0.281782 56.0905 0.26341 56.1897C0.242255 56.3039 0.67981 56.4114 1.45671 56.4827C3.88004 56.7053 29.1482 57.3305 29.381 57.1736C29.506 57.0895 31.7037 52.2682 34.2648 46.4598C36.826 40.6514 38.9964 35.8207 39.088 35.7249C39.1924 35.6157 39.3034 35.6076 39.3855 35.7031C39.4575 35.7869 41.4002 40.798 43.7027 46.8389C48.0108 58.1421 48.2692 58.7914 48.4025 58.6519C48.4457 58.6068 49.543 54.5054 50.841 49.5376ZM133.77 56.7829C131.645 56.468 130.139 55.8511 127.577 54.2459C124.558 52.3538 123.264 51.179 121.917 49.1038C119.147 44.8384 118.999 39.1539 121.544 34.7732C122.345 33.393 124.215 31.3851 125.552 30.4676C127.682 29.0063 129.911 28.3305 132.561 28.3427C134.421 28.3512 135.631 28.5996 137.519 29.361C138.943 29.9355 142.286 31.9697 143.632 33.0811C145.988 35.027 147.79 38.4773 148.28 41.9796C148.762 45.4246 147.464 49.7087 145.174 52.2291C143.148 54.4599 141.359 55.6834 139.001 56.4512C137.779 56.8493 135.285 57.0073 133.77 56.7829ZM138.357 56.367C139.543 56.0659 141.333 55.2759 142.247 54.6505C142.654 54.3715 143.686 53.4198 144.539 52.5354C146.214 50.8004 146.747 49.8755 147.598 47.2218C148.58 44.1633 148.153 40.2247 146.498 37.0735C145.263 34.7222 143.863 33.3031 140.994 31.4956C138.882 30.1643 138.054 29.744 136.422 29.1736C135.228 28.7563 134.712 28.6699 133.021 28.6032C130.541 28.5055 128.97 28.8479 126.81 29.9567C125.534 30.612 125.154 30.9144 123.744 32.3981C121.976 34.258 121.306 35.3076 120.65 37.2447C118.834 42.6096 120.586 48.6825 124.965 52.2061C125.887 52.9477 128.377 54.5471 129.683 55.2366C132.163 56.5459 135.791 57.0186 138.357 56.367ZM132.637 56.0509C131.393 55.7729 128.857 54.4645 127.697 53.5024C125.014 51.2765 123.34 47.8309 123.175 44.1932C123.044 41.3241 123.596 38.8966 124.841 36.8743C126.216 34.6384 128.001 32.9114 130.031 31.8512C131.989 30.8283 132.469 30.7245 135.244 30.7245C137.471 30.7245 137.912 30.7697 138.924 31.1011C141.239 31.8591 142.234 32.4919 143.997 34.3268C145.363 35.7488 145.73 36.2439 146.321 37.4589C147.498 39.8819 147.743 40.9358 147.732 43.5519C147.724 45.6404 147.69 45.8996 147.238 47.2754C146.39 49.8598 145.95 50.6015 144.159 52.4577C142.71 53.959 142.347 54.2417 140.918 54.9841C140.032 55.4439 138.896 55.9279 138.394 56.0596C137.239 56.3622 134.009 56.3573 132.637 56.0509ZM138.924 55.6597C140.982 54.9362 142.265 54.0863 144.017 52.2852C145.402 50.8615 145.743 50.4082 146.189 49.399C147.724 45.9188 147.998 42.7451 147.025 39.7037C146.336 37.5482 145.557 36.2732 143.843 34.4903C142.106 32.6845 141.362 32.2036 138.966 31.3347C137.874 30.939 137.575 30.9023 135.397 30.8978C132.645 30.8922 131.708 31.1203 129.692 32.2858C126.725 34.001 124.302 37.267 123.672 40.4025C123.53 41.1065 123.437 42.3981 123.437 43.6623C123.437 45.6319 123.469 45.8563 123.978 47.4461C124.607 49.4131 125.222 50.5363 126.432 51.934C128.243 54.0245 130.748 55.4543 133.531 55.9848C134.823 56.2309 137.812 56.0507 138.924 55.6597ZM132.867 54.5411C129.733 53.6731 127.245 51.6438 125.849 48.8166C124.368 45.8195 124.17 43.0393 125.205 39.7838C125.715 38.1779 126.275 37.2075 127.492 35.8247C128.799 34.338 130.23 33.3534 132.035 32.6976C133.39 32.2055 133.61 32.1725 135.551 32.1713C137.483 32.17 137.71 32.2034 138.964 32.6714C140.741 33.3344 141.806 34.0238 143.073 35.3304C144.22 36.5127 145.176 38.0575 145.682 39.5448C146.328 41.4448 146.5 44.5789 146.05 46.2523C145.617 47.864 144.744 49.5216 143.561 50.9794C141.072 54.0457 136.535 55.5569 132.867 54.5411ZM138.004 54.3022C139.273 53.9463 141.505 52.7228 142.413 51.8853C144.124 50.3072 145.435 48.0092 145.917 45.7442C146.392 43.5115 146.023 40.6439 144.973 38.4172C143.503 35.2993 140.869 33.2481 137.317 32.456C135.295 32.0052 132.622 32.472 130.414 33.6613C128.855 34.501 126.719 36.7734 125.993 38.3634C125.052 40.4236 124.893 41.206 124.902 43.7122C124.91 45.7064 124.954 46.0744 125.294 47.0082C126.746 50.9894 129.626 53.639 133.404 54.4684C134.583 54.7273 136.77 54.6483 138.004 54.3022ZM130.037 52.3483C129.163 52.1232 128.937 51.9775 128.115 51.1095C126.895 49.8209 126.326 48.8856 125.73 47.1895C124.787 44.5078 124.966 41.408 126.22 38.6823C127.312 36.3076 129.891 33.947 132.191 33.2165C133.721 32.7304 135.555 32.5384 136.774 32.7366C138.763 33.0599 139.264 33.2893 140.167 34.2885C141.76 36.0532 142.597 37.9008 142.935 40.3984C143.363 43.5615 142.148 47.041 139.764 49.4845C137.675 51.6245 135.783 52.4657 132.867 52.5501C131.553 52.5882 130.745 52.5306 130.037 52.3483ZM135.672 51.8906C138.635 50.912 141.164 48.2833 142.256 45.0486C142.782 43.4932 142.907 40.8785 142.537 39.2226C142.155 37.5209 141.326 35.9173 140.166 34.6372C139.177 33.5475 139.124 33.514 137.853 33.1844C135.387 32.5452 132.18 33.0647 130.208 34.4229C128.963 35.28 127.124 37.2933 126.551 38.4265C125.675 40.1561 125.393 41.6036 125.46 44.0129C125.514 45.9362 125.561 46.2247 126.008 47.364C126.974 49.8243 128.463 51.6093 129.904 52.0343C131.108 52.3895 131.498 52.4305 133.033 52.3635C133.964 52.3228 134.837 52.1665 135.672 51.8906ZM164.361 56.6483C164.16 56.4877 163.546 56.0798 162.998 55.742C162.45 55.4041 161.805 54.9403 161.564 54.7112C161.293 54.4525 160.015 51.9875 158.191 48.2018L155.255 42.1088L155.178 48.8432C155.122 53.7913 155.051 55.6699 154.911 55.9258C154.294 57.0515 153.735 57.0489 151.814 55.9116C151.008 55.4339 150.175 54.8508 149.965 54.6159L149.581 54.1888V41.7881V29.3874L149.953 28.9736C150.191 28.7089 150.489 28.5599 150.78 28.5599C151.309 28.5599 154.171 30.1148 154.668 30.6718C154.851 30.8771 156.34 33.8052 157.977 37.1787C159.614 40.5521 160.999 43.2639 161.056 43.2049C161.112 43.1458 161.158 40.0037 161.158 36.2223V29.347L161.553 28.9344C162.087 28.3762 162.668 28.4891 164.338 29.475C165.885 30.3889 166.449 30.9271 166.581 31.6168C166.634 31.8977 166.678 37.4651 166.678 43.9888V55.8501L166.157 56.3953C165.558 57.0217 164.938 57.1091 164.361 56.6483ZM154.181 56.497C154.79 56.0291 154.792 56.0112 154.871 48.7117C154.921 44.1786 155.003 41.6351 155.103 41.6005C155.188 41.5709 156.568 44.3015 158.169 47.6686C159.771 51.0357 161.279 54.0308 161.52 54.3242C162.099 55.0297 164.692 56.6197 165.263 56.6197C165.54 56.6197 165.844 56.4651 166.077 56.206L166.448 55.7922V43.8195C166.448 33.9379 166.411 31.7543 166.234 31.3166C165.944 30.5977 163.223 28.8806 162.374 28.8806C161.364 28.8806 161.396 28.6449 161.312 36.6415C161.262 41.3336 161.181 43.8615 161.082 43.8411C160.997 43.8238 159.561 40.9737 157.889 37.5076C156.217 34.0414 154.7 31.0375 154.516 30.8321C154.084 30.349 151.182 28.7202 150.753 28.7202C150.573 28.7202 150.287 28.8645 150.118 29.0409C149.816 29.3561 149.811 29.5719 149.816 41.748C149.82 51.2931 149.864 54.1938 150.009 54.3933C150.229 54.6946 152.062 55.8941 152.955 56.3199C153.616 56.6357 153.94 56.6824 154.181 56.497ZM153.289 56.0986C153.047 55.9125 153.031 55.0121 153.068 43.4755L153.108 31.0529L153.546 30.8916C153.938 30.7478 154.024 30.7819 154.353 31.2085C154.555 31.4714 156.799 36.0158 159.339 41.3071C161.879 46.5984 163.989 50.9852 164.028 51.0556C164.067 51.1261 164.196 51.0992 164.315 50.9959C164.497 50.8381 164.532 49.2587 164.532 41.079C164.532 33.7257 164.577 31.3028 164.716 31.1574C164.987 30.8741 165.521 30.9233 165.811 31.2582C166.043 31.5256 166.065 32.6188 166.065 43.6733C166.065 54.4794 166.039 55.8225 165.824 56.0471C165.396 56.4948 164.879 56.3557 164.4 55.6634C164.158 55.3138 162.015 50.9305 159.639 45.9226C154.794 35.7127 154.937 36.001 154.766 36.0558C154.697 36.0778 154.605 40.5153 154.562 45.9168C154.518 51.3184 154.466 55.7507 154.447 55.7665C154.427 55.7822 154.303 55.9085 154.17 56.0471C153.879 56.3513 153.636 56.3655 153.289 56.0986ZM165.671 55.8867C165.885 55.6622 165.912 54.3377 165.912 43.7185C165.912 32.1678 165.903 31.7906 165.615 31.4237C165.373 31.1154 165.266 31.0782 165.04 31.2229C164.777 31.3906 164.757 31.9653 164.682 41.3245C164.638 46.7826 164.587 51.2713 164.567 51.2995C164.548 51.3277 164.387 51.3277 164.21 51.2995C163.951 51.2584 162.975 49.3519 159.26 41.6278C156.714 36.3365 154.505 31.8088 154.35 31.5663C153.995 31.0088 153.381 30.9636 153.26 31.4861C153.214 31.6845 153.196 37.2584 153.219 43.8725L153.261 55.8982L153.627 55.9523C153.829 55.9821 154.052 55.9099 154.123 55.792C154.195 55.674 154.255 51.2844 154.258 46.0372C154.26 40.79 154.305 36.3307 154.357 36.1276C154.494 35.5907 154.998 35.7379 155.346 36.4166C155.505 36.7253 157.542 41.004 159.875 45.9248C162.207 50.8457 164.313 55.1569 164.555 55.5053C165.029 56.1897 165.294 56.2804 165.671 55.8867ZM171.029 56.3624C169.391 55.4537 168.405 54.748 168.105 54.2692C167.845 53.8536 167.828 53.1154 167.828 41.6348C167.828 31.7814 167.868 29.3699 168.032 29.0674C168.456 28.2895 168.865 28.2389 174.685 28.243C177.661 28.2451 180.354 28.3097 180.671 28.3865C181.61 28.6146 184.174 30.1822 184.494 30.7244C184.843 31.3134 184.75 31.8744 184.221 32.368C183.837 32.7266 183.805 32.7288 178.793 32.7288C176.019 32.7288 173.717 32.7851 173.676 32.8538C173.635 32.9226 173.552 34.6183 173.491 36.6219L173.38 40.2648L175.511 40.2688C176.683 40.2709 177.95 40.3469 178.326 40.4376C179.119 40.6285 181.503 42.0228 182.018 42.5968C182.503 43.1361 182.479 43.8583 181.958 44.4034L181.546 44.8346L177.485 44.8822L173.425 44.9297V48.6825V52.4352L177.221 52.4831L181.016 52.531L182.592 53.4726C183.459 53.9905 184.269 54.5657 184.393 54.7509C184.756 55.2928 184.672 55.948 184.171 56.4717L183.722 56.9404H177.897H172.071L171.029 56.3624ZM184.096 56.25C184.815 55.3756 184.535 54.8903 182.672 53.7812C181.929 53.3394 181.184 52.9146 181.015 52.8372C180.847 52.7598 179.018 52.6593 176.952 52.6138L173.195 52.531L173.154 48.8783C173.128 46.5419 173.171 45.1119 173.274 44.9099C173.429 44.6081 173.614 44.5941 177.446 44.5941C181.352 44.5941 181.465 44.5851 181.811 44.2454C182.576 43.4932 182.19 42.7962 180.374 41.6554C178.825 40.6828 178.409 40.5855 175.792 40.5855C174.283 40.5855 173.407 40.5239 173.342 40.4133C173.167 40.1186 173.27 33.0045 173.452 32.7755C173.58 32.614 174.726 32.5684 178.664 32.5684H183.713L184.089 32.1749C184.942 31.2827 184.45 30.5471 182.18 29.3215L180.769 28.5599H174.79H168.811L168.435 28.9534L168.058 29.347V41.5328C168.058 49.9691 168.11 53.8363 168.225 54.1012C168.402 54.5076 170.825 56.14 171.835 56.5339C172.319 56.7223 173.476 56.7591 178.077 56.7325L183.726 56.6999L184.096 56.25ZM171.612 55.928L171.279 55.5569V43.366C171.279 31.7592 171.292 31.1623 171.559 30.9097C171.81 30.6724 172.466 30.6443 177.758 30.6443C182.934 30.6443 183.707 30.6759 183.918 30.8963C184.258 31.252 184.217 31.706 183.818 31.9981C183.526 32.2121 182.738 32.2477 178.301 32.2477H173.124L173.054 32.6085C173.016 32.8069 172.95 35.0702 172.908 37.6379C172.854 40.9981 172.881 42.3575 173.006 42.4883C173.127 42.6146 174.426 42.67 177.266 42.67C181.029 42.67 181.371 42.6931 181.605 42.9632C181.935 43.3443 181.926 43.6788 181.578 44.008C181.333 44.2407 180.805 44.2734 177.296 44.2734C173.862 44.2734 173.26 44.3092 173.053 44.5254C172.845 44.7431 172.812 45.4245 172.812 49.5441C172.812 53.0378 172.861 54.3622 172.996 54.5032C173.132 54.6453 174.536 54.6956 178.363 54.6956C183.341 54.6956 183.558 54.7083 183.852 55.0163C184.221 55.4023 184.227 55.4841 183.92 55.9427L183.681 56.2991H177.813H171.945L171.612 55.928ZM183.693 55.9059C183.794 55.7779 183.854 55.5434 183.825 55.3848C183.775 55.1157 183.416 55.0911 178.45 55.0163C173.628 54.9437 173.104 54.9096 172.858 54.6527C172.609 54.3923 172.591 53.9821 172.632 49.6019C172.656 46.9799 172.709 44.7144 172.75 44.5674C172.893 44.0545 173.695 43.9527 177.593 43.9527C180.984 43.9527 181.419 43.9235 181.505 43.6904C181.558 43.5461 181.531 43.3116 181.445 43.1693C181.31 42.9447 180.734 42.8999 177.093 42.8303C173.048 42.753 172.892 42.7383 172.74 42.4197C172.534 41.99 172.759 32.3997 172.979 32.1687C173.074 32.0697 175.192 31.9762 178.455 31.9271L183.776 31.8469L183.822 31.4269C183.858 31.1026 183.788 30.9844 183.515 30.908C182.891 30.7331 172.203 30.7907 171.882 30.9706C171.593 31.1325 171.585 31.439 171.585 43.3445C171.585 54.4789 171.607 55.578 171.839 55.8455C172.076 56.1196 172.466 56.1387 177.8 56.1387C182.603 56.1387 183.537 56.1018 183.693 55.9059ZM189.697 56.6954C189.412 56.5643 188.524 56.0485 187.723 55.5491C186.602 54.8493 186.22 54.5198 186.057 54.1123C185.884 53.6792 185.846 51.4286 185.846 41.673C185.846 30.6542 185.866 29.7206 186.114 29.203C186.537 28.3213 187.037 28.2333 188.203 28.8349C189.644 29.5776 190.87 30.438 191.17 30.9164C191.416 31.3089 191.432 32.0931 191.388 41.6148C191.362 47.266 191.388 52.0159 191.447 52.1702C191.543 52.426 191.86 52.4508 195.039 52.4508C197.269 52.4508 198.715 52.5175 199.048 52.6357C199.335 52.7374 200.195 53.2028 200.96 53.67C202.755 54.7672 203.112 55.4745 202.343 56.4104L201.973 56.8603L196.094 56.897C191.173 56.9277 190.131 56.8949 189.697 56.6954ZM202.084 56.3945C202.448 56.0495 202.516 55.2259 202.214 54.8198C202.035 54.5789 200.3 53.4678 199.263 52.9299C198.908 52.746 197.942 52.673 195.046 52.6112L191.289 52.531L191.212 41.8098L191.136 31.0885L190.579 30.5858C189.772 29.8577 187.652 28.7202 187.101 28.7202C186.109 28.7202 186.152 28.1362 186.152 41.674C186.152 49.3204 186.208 54.0247 186.302 54.2072C186.469 54.5344 189.13 56.2427 189.975 56.5662C190.395 56.7267 191.829 56.7666 196.142 56.7376C201.424 56.7022 201.78 56.6816 202.084 56.3945ZM189.679 55.9784C189.378 55.6633 189.372 55.4439 189.372 43.4236C189.372 34.122 189.416 31.1434 189.556 30.9971C189.849 30.6909 190.407 30.7733 190.667 31.161C190.878 31.4755 190.906 32.8677 190.906 43.0092C190.906 53.3403 190.93 54.5108 191.148 54.5983C191.282 54.6518 193.647 54.6956 196.404 54.6956C201.824 54.6956 202.099 54.7372 202.099 55.5545C202.099 56.295 202.066 56.2991 195.859 56.2991C190.19 56.2991 189.975 56.2879 189.679 55.9784ZM201.725 55.9076C201.963 55.7226 201.989 55.6186 201.853 55.3865C201.696 55.1186 201.281 55.09 196.409 55.011C193.509 54.964 191.123 54.9099 191.108 54.8908C191.093 54.8716 190.968 54.738 190.83 54.5939C190.601 54.3544 190.588 53.3915 190.681 43.41C190.738 37.17 190.723 32.2133 190.645 31.8469C190.524 31.2755 190.459 31.2055 190.056 31.2055H189.602L189.563 43.3504C189.524 55.3222 189.528 55.4999 189.831 55.817C190.128 56.1274 190.338 56.1387 195.783 56.1387C200.459 56.1387 201.479 56.099 201.725 55.9076ZM207.926 56.8257C207.255 56.5644 204.51 54.7694 204.246 54.4188C203.945 54.019 203.939 53.7692 203.939 41.6758C203.939 33.1463 203.991 29.2406 204.105 29.0168C204.474 28.2959 204.963 28.2391 210.796 28.2401C214.343 28.2407 216.5 28.3039 216.897 28.4189C217.584 28.6185 220.19 30.1739 220.508 30.5748C220.84 30.9932 220.762 31.8659 220.351 32.3235L219.987 32.7288H214.885C212.08 32.7288 209.754 32.7829 209.717 32.849C209.68 32.9152 209.601 34.6032 209.54 36.6003L209.43 40.2313L211.94 40.2881C214.408 40.3441 214.467 40.3536 215.443 40.8604C216.777 41.5524 217.881 42.3379 218.243 42.8529C218.506 43.2262 218.519 43.3465 218.354 43.8705C218.046 44.8462 217.714 44.9148 213.295 44.9148H209.454L209.495 48.6427L209.536 52.3707L213.293 52.4508C216.063 52.51 217.151 52.5887 217.433 52.7505C218.994 53.6442 220.25 54.4854 220.435 54.7612C220.882 55.4294 220.65 56.3557 219.935 56.7539C219.59 56.9463 208.408 57.0132 207.926 56.8257ZM219.601 56.6164C220.328 56.4051 220.673 55.6706 220.336 55.0505C220.086 54.5912 218.528 53.541 217.28 52.9907C216.48 52.6382 216.251 52.6186 212.874 52.615L209.312 52.6112L209.215 52.2084C209.162 51.9868 209.145 50.252 209.176 48.3531C209.223 45.5174 209.274 44.8737 209.461 44.7498C209.589 44.6659 211.44 44.5979 213.638 44.5965C217.38 44.5942 217.603 44.5773 217.893 44.2734C218.333 43.814 218.285 43.1337 217.778 42.6383C217.546 42.4114 216.774 41.8748 216.062 41.4458L214.767 40.6657L212.075 40.5855L209.383 40.5054L209.342 36.8527C209.315 34.5162 209.359 33.0862 209.462 32.8842C209.618 32.5799 209.807 32.5684 214.658 32.5684C219.519 32.5684 219.706 32.557 220.096 32.2361C220.556 31.8574 220.628 31.2277 220.272 30.6954C220.047 30.3594 218.1 29.1393 217.203 28.7725C216.881 28.6408 214.964 28.5806 210.818 28.5721C205.204 28.5605 204.875 28.5759 204.531 28.8664L204.169 29.1728L204.128 41.5554L204.087 53.938L204.675 54.5227C204.998 54.8443 205.969 55.4838 206.832 55.9438L208.401 56.7801L213.722 56.7791C216.83 56.7787 219.275 56.711 219.601 56.6164ZM207.631 55.8766C207.316 55.4577 207.313 55.352 207.313 43.4056C207.313 32.7602 207.341 31.3155 207.552 31.0007L207.79 30.6443H213.751C218.965 30.6443 219.742 30.6759 219.952 30.8963C220.293 31.252 220.251 31.706 219.853 31.9981C219.56 32.2121 218.772 32.2477 214.335 32.2477H209.159L209.088 32.6085C208.92 33.4652 208.883 42.3235 209.047 42.4946C209.16 42.6128 210.547 42.67 213.3 42.67C217.063 42.67 217.406 42.6931 217.639 42.9632C217.969 43.3443 217.961 43.6788 217.613 44.008C217.367 44.2407 216.839 44.2734 213.33 44.2734C209.896 44.2734 209.294 44.3092 209.087 44.5254C208.879 44.7431 208.846 45.4245 208.846 49.5441C208.846 53.0378 208.895 54.3622 209.03 54.5032C209.166 54.6453 210.57 54.6956 214.397 54.6956C219.376 54.6956 219.592 54.7083 219.887 55.0163C220.256 55.4023 220.262 55.4841 219.955 55.9427L219.716 56.2991H213.832H207.949L207.631 55.8766ZM219.727 55.9059C219.829 55.7779 219.888 55.5434 219.859 55.3848C219.81 55.1158 219.451 55.0911 214.503 55.0163C210.321 54.9531 209.146 54.8896 208.946 54.7161C208.721 54.5202 208.693 53.9534 208.693 49.5565C208.693 45.2798 208.725 44.5832 208.934 44.365C209.066 44.2264 209.187 44.0992 209.202 44.0822C209.217 44.0652 211.092 44.011 213.368 43.9619C217.191 43.8793 217.51 43.8506 217.559 43.5842C217.691 42.8658 217.483 42.8303 213.152 42.8303C210.174 42.8303 209.011 42.7779 208.877 42.6379C208.525 42.2699 208.743 32.5388 209.112 32.1531C209.29 31.9675 210.258 31.9271 214.525 31.9271C219.503 31.9271 219.729 31.914 219.881 31.6175C220.001 31.3838 219.98 31.2463 219.799 31.0563C219.589 30.8367 218.835 30.8047 213.885 30.8047C210.268 30.8047 208.105 30.8648 207.916 30.9706C207.627 31.1325 207.62 31.4395 207.62 43.3881V55.6395L207.96 55.8891C208.455 56.2511 219.441 56.2668 219.727 55.9059ZM235.808 56.7729C233.542 56.4431 231.648 55.548 228.167 53.1625C223.718 50.1133 221.45 45.293 222.039 40.1352C222.245 38.3281 222.626 37.0522 223.438 35.4504C224.744 32.8718 226.583 31.0236 229.164 29.6944C231.257 28.6164 232.393 28.3439 234.76 28.3522C237.775 28.3627 239.657 29.0103 243.247 31.2729C245.479 32.6794 246.456 33.4821 246.811 34.1996C247.303 35.1939 246.626 36.2259 245.597 36.0513C245.11 35.9686 242.843 34.6718 241.883 33.9263C241.057 33.2846 239.445 32.8574 237.827 32.8509C233.536 32.8336 229.889 35.4204 228.247 39.6456C227.446 41.7056 227.343 44.7917 228.006 46.8389C228.452 48.217 229.488 49.9301 230.495 50.9555C231.568 52.0477 232.532 52.3656 234.76 52.3616C237.251 52.3572 239.488 51.5014 241.487 49.7887C242.657 48.7858 243.029 48.8169 245.049 50.0858C246.72 51.1357 247.14 51.6395 246.962 52.3796C246.658 53.6495 243.613 55.7919 241.124 56.4881C239.856 56.8427 237.247 56.9825 235.808 56.7729ZM240.664 56.3437C243.41 55.77 246.721 53.4247 246.721 52.0526C246.721 51.4307 246.46 51.1824 244.631 50.0607C242.966 49.0404 242.73 49.0463 241.354 50.1418C238.614 52.3235 235.523 53.0881 232.423 52.3509C231.473 52.1249 231.218 51.982 230.491 51.2686C229.42 50.2176 228.29 48.4194 227.834 47.0382C227.518 46.0817 227.478 45.6703 227.484 43.4717C227.492 41.1505 227.52 40.9124 227.913 39.866C228.968 37.0566 230.711 35.0143 233.109 33.7754C234.874 32.8634 236.585 32.488 238.364 32.6221C240.03 32.7477 241.01 33.0863 242.343 33.9959C242.962 34.4187 243.979 35.0393 244.603 35.375C245.671 35.9498 245.763 35.9721 246.19 35.7589C246.56 35.5746 246.653 35.4174 246.693 34.9133C246.737 34.354 246.669 34.221 245.992 33.5386C245.059 32.5987 241.425 30.2954 239.762 29.5898C237.845 28.7771 236.271 28.5035 234.08 28.6025C231.968 28.6979 230.751 29.0323 228.934 30.0165C226.68 31.237 224.747 33.2556 223.586 35.6007C222.687 37.4175 222.331 38.7905 222.233 40.826C222.039 44.8455 223.1 47.8818 225.696 50.7378C226.856 52.0137 228.378 53.1579 231.004 54.7267C233.074 55.9636 234.32 56.372 236.754 56.6108C238.23 56.7556 238.917 56.7087 240.664 56.3437ZM234.607 55.9758C230.283 54.7637 226.922 51.2478 225.722 46.6818C225.138 44.4604 225.342 40.8693 226.179 38.6461C227.356 35.5152 230.523 32.3685 233.717 31.1548C234.772 30.7537 234.997 30.729 237.597 30.7268C240.188 30.7246 240.424 30.75 241.442 31.1397C242.892 31.6943 245.328 33.2105 245.939 33.9379C246.511 34.6196 246.537 35.2632 246 35.4692C245.731 35.5724 245.409 35.4176 244.407 34.7039C241.781 32.8338 239.843 32.1706 237.367 32.2945C232.622 32.532 228.936 35.4992 227.465 40.2648C227.102 41.4402 227.044 41.8925 227.044 43.5519C227.044 45.1802 227.103 45.6649 227.432 46.7053C227.969 48.408 228.788 49.8711 229.898 51.1121C232.584 54.1145 236.226 55.3068 239.897 54.3856C241.535 53.9745 242.424 53.5576 243.65 52.6252C245.153 51.4821 245.613 51.2607 246.052 51.4697C246.967 51.9056 246.13 53.1944 244.063 54.5328C242.071 55.8227 240.815 56.1805 238.057 56.2446C236.126 56.2895 235.573 56.2465 234.607 55.9758ZM241.291 55.6175C242.759 55.1577 244.917 53.845 245.705 52.9325C246.316 52.2261 246.299 52.262 246.168 51.9028C245.955 51.3241 245.444 51.5613 242.866 53.4343C242.12 53.9763 240.067 54.6708 238.661 54.8573C236.592 55.1316 234.098 54.5643 232.184 53.3842C230.908 52.5971 228.937 50.4934 228.237 49.1728C227.053 46.938 226.88 46.2338 226.876 43.632C226.873 41.5406 226.913 41.1818 227.275 40.0599C228.41 36.5401 231.137 33.6235 234.195 32.6567C238.119 31.4165 240.678 31.8633 244.355 34.4303C245.653 35.3367 246.014 35.4587 246.167 35.0421C246.381 34.4589 245.523 33.6087 243.54 32.4397C241.322 31.1325 240.345 30.8823 237.52 30.8984C235.355 30.9108 235.035 30.9509 233.917 31.3486C230.152 32.6889 226.79 36.3919 225.948 40.1272C225.676 41.3315 225.63 45.4611 225.877 46.438C226.466 48.7634 227.697 51.013 229.254 52.6076C230.831 54.2238 233.477 55.618 235.643 55.9749C237.175 56.2274 239.894 56.0554 241.291 55.6175ZM126.745 21.0925C126.531 20.8692 126.504 19.778 126.504 11.5041C126.504 4.45612 126.549 2.12039 126.688 1.97515C126.829 1.82746 131.531 1.78274 146.916 1.78274C157.94 1.78274 167.069 1.82653 167.202 1.88006C167.42 1.9673 167.445 2.96409 167.445 11.4949C167.445 20.7406 167.437 21.0173 167.148 21.1785C166.948 21.2905 160.366 21.3445 146.919 21.3445C129.002 21.3445 126.961 21.319 126.745 21.0925ZM167.101 21.0512C167.253 20.9501 167.286 18.9269 167.255 11.4732L167.215 2.02325L147.144 1.98257C132.439 1.95276 127.018 1.99015 126.865 2.12246C126.694 2.2707 126.657 3.9633 126.657 11.5753C126.657 20.2368 126.675 20.8583 126.925 21.011C127.249 21.2083 166.805 21.2479 167.101 21.0512Z" fill="#F6F09E"/>
<path d="M49.5282 67.002C49.5282 66.7178 50.2686 63.8615 55.1434 45.3424C56.7877 39.0957 58.1118 33.8298 58.0857 33.6404C58.0421 33.3226 57.8384 33.2649 55.444 32.8921C53.7807 32.6332 52.8265 32.4155 52.7854 32.2855C52.7501 32.174 53.5515 29.9372 54.5663 27.3149C55.5811 24.6926 58.2985 17.6767 60.605 11.724L64.7987 0.900879H79.1242H93.4497L93.7971 1.54225C93.9881 1.895 94.1424 2.25577 94.1399 2.34396C94.1373 2.43215 93.9646 2.16157 93.7561 1.74268L93.3769 0.98105H79.1298H64.8826L64.7738 1.34182C64.6788 1.65653 61.7294 9.30674 58.2058 18.3782C54.2809 28.4827 52.9016 32.081 52.9016 32.2156C52.9016 32.2997 53.5744 32.4567 54.3966 32.5646C56.6288 32.8574 58.1174 33.1481 58.2858 33.3242C58.3836 33.4265 56.9606 39.0844 54.1974 49.5801C51.8662 58.4345 49.9194 65.9296 49.8713 66.2359C49.7911 66.745 50.2134 66.3611 54.8097 61.7463C57.574 58.9708 59.9315 56.6766 60.0487 56.6481C60.178 56.6166 60.2618 56.7269 60.2618 56.9287V57.2611H69.6793C75.9579 57.2611 79.1228 57.2064 79.1748 57.0968C79.2177 57.0064 79.2349 57.0244 79.2131 57.1369C79.1623 57.3995 60.4509 57.523 60.2017 57.2624C60.1167 57.1735 59.9558 57.1008 59.8442 57.1008C59.6765 57.1008 56.7755 59.9547 50.4099 66.3822C49.8169 66.981 49.5282 67.1839 49.5282 67.002ZM48.0869 58.2545C47.7661 57.6057 47.7791 57.3575 48.1013 57.9802C48.33 58.4222 48.358 58.4344 48.4677 58.1405C48.5443 57.9355 48.5896 57.9079 48.595 58.0628C48.5996 58.1951 48.5425 58.4041 48.4679 58.5271C48.3633 58.6999 48.2765 58.6377 48.0869 58.2545ZM48.6297 57.5818C48.6297 57.4495 48.689 57.197 48.7615 57.0206C48.8445 56.8185 48.8933 56.7889 48.8933 56.9405C48.8933 57.0727 48.834 57.3253 48.7615 57.5016C48.6784 57.7038 48.6297 57.7334 48.6297 57.5818ZM47.6304 57.1748C47.4824 56.7716 47.5261 56.6675 47.7068 56.9926C47.7963 57.1535 47.8373 57.319 47.7978 57.3602C47.7583 57.4015 47.683 57.3181 47.6304 57.1748ZM104.461 57.3012C113.968 57.273 118.53 57.206 118.53 57.0946C118.53 57.004 118.353 56.5642 118.137 56.1175C117.92 55.6707 117.77 55.2771 117.803 55.2428C117.923 55.1165 118.72 57.0704 118.618 57.2429C118.541 57.3725 114.655 57.4107 104.452 57.3822L90.3927 57.343L104.461 57.3012ZM19.8573 57.0779C17.6645 57.0045 12.3958 56.842 8.14893 56.7169C3.90208 56.5918 0.374085 56.4286 0.308946 56.3542C0.243808 56.2798 1.62158 52.972 3.37067 49.0035C5.11975 45.035 10.3927 33.0575 15.0884 22.3867C19.7841 11.716 23.712 2.8952 23.817 2.78505C24.0236 2.56842 25.6822 2.50357 43.8806 2.00046C52.0988 1.77326 53.994 1.76003 54.1881 1.92847C54.5773 2.26625 58.1157 7.51849 58.1075 7.74622C58.099 7.98206 56.9078 10.4307 56.896 10.2368C56.8918 10.1685 57.1299 9.61107 57.4251 8.99816C57.7202 8.38524 57.9618 7.80563 57.9618 7.71014C57.9618 7.44344 54.2606 2.08494 54.0058 1.98268C53.8069 1.90289 45.965 2.09704 29.2917 2.59453C26.3843 2.68128 23.9587 2.8047 23.9014 2.86879C23.844 2.93289 23.1959 4.35625 22.4611 6.03183C20.8995 9.59264 17.7344 16.7909 14.1065 25.0324C12.6896 28.2512 9.68845 35.0698 7.43734 40.1847C5.18622 45.2996 2.6848 50.9827 1.87863 52.8137C1.07246 54.6448 0.449773 56.1815 0.494883 56.2286C0.539993 56.2758 4.12146 56.4193 8.4537 56.5475C12.7859 56.6757 18.5386 56.8519 21.2373 56.9391C23.9361 57.0263 26.8751 57.0984 27.7685 57.0992L29.3929 57.1008L34.107 46.398C36.6998 40.5114 38.9074 35.6013 39.0127 35.4867C39.1695 35.316 39.2405 35.324 39.4044 35.5304C39.5721 35.7418 39.5677 35.7679 39.3774 35.6915C39.2525 35.6414 39.0829 35.6939 39.0004 35.8081C38.918 35.9224 36.7902 40.7059 34.2721 46.4381C31.7539 52.1703 29.6283 56.9505 29.5485 57.0607C29.3817 57.2911 26.3782 57.2964 19.8573 57.0779ZM89.9207 56.6946C89.7962 56.383 89.5237 55.7247 89.3152 55.2316C88.9312 54.3238 88.822 53.9135 89.094 54.4007C89.3676 54.891 90.3054 57.2611 90.2257 57.2611C90.1825 57.2611 90.0452 57.0062 89.9207 56.6946ZM78.739 56.2991C78.6082 56.0345 78.5357 55.8181 78.5778 55.8181C78.62 55.8181 78.7615 56.0345 78.8924 56.2991C79.0232 56.5636 79.0958 56.7801 79.0536 56.7801C79.0114 56.7801 78.8699 56.5636 78.739 56.2991ZM134.403 56.6042C132.932 56.4405 130.785 55.8183 129.683 55.2367C128.377 54.5472 125.887 52.9478 124.965 52.2061C120.586 48.6825 118.834 42.6096 120.65 37.2447C121.306 35.3076 121.976 34.2581 123.744 32.3982C125.154 30.9144 125.534 30.612 126.81 29.9567C128.97 28.8479 130.541 28.5055 133.021 28.6032C135.891 28.7163 137.524 29.3088 140.994 31.4956C143.863 33.3032 145.263 34.7222 146.498 37.0735C148.153 40.2247 148.58 44.1634 147.598 47.2218C146.747 49.8755 146.214 50.8004 144.539 52.5355C142.784 54.3538 141.994 54.9454 140.376 55.6494C138.268 56.567 136.544 56.8426 134.403 56.6042ZM138.394 56.0596C138.896 55.9279 140.032 55.4439 140.918 54.9842C142.347 54.2417 142.71 53.959 144.159 52.4577C145.95 50.6015 146.39 49.8598 147.238 47.2754C147.69 45.8996 147.724 45.6404 147.732 43.5519C147.743 40.9358 147.498 39.882 146.321 37.4589C145.73 36.2439 145.363 35.7488 143.997 34.3268C142.234 32.4919 141.239 31.8591 138.924 31.1011C137.912 30.7697 137.471 30.7245 135.244 30.7245C132.469 30.7245 131.989 30.8284 130.031 31.8512C127.432 33.2086 124.85 36.1156 123.91 38.7427C122.37 43.0451 123.159 48.1477 125.899 51.6108C126.406 52.2512 127.215 53.1024 127.697 53.5024C128.857 54.4645 131.393 55.773 132.637 56.0509C134.009 56.3573 137.239 56.3622 138.394 56.0596ZM133.404 54.4684C129.626 53.639 126.746 50.9895 125.294 47.0082C124.954 46.0744 124.91 45.7064 124.902 43.7122C124.893 41.206 125.052 40.4236 125.993 38.3634C126.719 36.7735 128.855 34.501 130.414 33.6614C132.622 32.472 135.295 32.0052 137.317 32.456C140.869 33.2481 143.503 35.2993 144.973 38.4172C146.023 40.6439 146.392 43.5116 145.917 45.7442C145.435 48.0092 144.124 50.3072 142.413 51.8853C141.505 52.7228 139.273 53.9464 138.004 54.3022C136.77 54.6484 134.583 54.7274 133.404 54.4684ZM137.928 54.1392C138.434 54.0025 139.434 53.5929 140.151 53.2289C141.221 52.6854 141.704 52.3047 142.848 51.1014C143.968 49.9241 144.368 49.3687 144.883 48.2775C145.728 46.4864 146.034 44.9451 145.922 43.0536C145.802 41.0363 145.612 40.2552 144.82 38.5455C144.048 36.8781 142.782 35.3287 141.382 34.3369C139.887 33.2774 139.694 33.3492 140.683 34.5967C141.847 36.0664 142.673 37.8893 142.996 39.7037C143.424 42.1043 143.109 44.2298 141.964 46.6786C141.444 47.7906 141.07 48.3081 139.934 49.4896C138.49 50.991 137.314 51.7678 135.551 52.3866C134.621 52.7126 131.458 52.8114 130.203 52.5536C129.201 52.3479 129.522 52.6934 131.01 53.4228C133.225 54.5079 135.637 54.7577 137.928 54.1392ZM135.832 52.0844C137.403 51.508 138.49 50.7894 139.764 49.4845C142.148 47.041 143.363 43.5615 142.935 40.3984C142.597 37.9008 141.76 36.0533 140.167 34.2885C139.264 33.2893 138.763 33.0599 136.774 32.7366C135.555 32.5384 133.721 32.7305 132.191 33.2166C129.891 33.947 127.312 36.3077 126.22 38.6823C124.966 41.408 124.787 44.5078 125.73 47.1895C126.326 48.8857 126.895 49.821 128.115 51.1096C128.937 51.9775 129.163 52.1232 130.037 52.3483C131.577 52.7451 134.379 52.6174 135.832 52.0844ZM126.328 52.3129C124.916 50.7341 124.303 49.6678 123.617 47.5933C123.143 46.163 123.067 45.7144 123.009 44.0299C122.928 41.6973 123.223 39.9411 123.986 38.206C125.402 34.9841 128.28 32.1997 131.44 30.9922C132.5 30.5874 132.711 30.5642 135.321 30.5654C137.768 30.5665 138.185 30.6061 139.001 30.9151C140.527 31.493 140.563 31.4947 139.768 30.9508C138.874 30.3397 137.122 29.5463 135.704 29.1102C134.152 28.6331 130.662 28.6688 129.111 29.1777C124.834 30.5804 121.607 33.9971 120.499 38.2948C120.048 40.0438 120.045 43.2013 120.493 44.9365C121.147 47.4692 122.746 50.092 124.601 51.6715C125.707 52.6134 127.077 53.5733 127.316 53.5733C127.393 53.5733 126.948 53.0061 126.328 52.3129ZM171.835 56.5339C170.825 56.1401 168.402 54.5076 168.225 54.1012C168.11 53.8363 168.058 49.9691 168.058 41.5328V29.347L168.435 28.9535L168.811 28.5599H174.79H180.769L182.18 29.3215C184.45 30.5471 184.942 31.2827 184.089 32.1749L183.713 32.5684H178.664C174.726 32.5684 173.58 32.614 173.452 32.7755C173.27 33.0045 173.167 40.1186 173.342 40.4133C173.407 40.524 174.283 40.5856 175.792 40.5856C178.409 40.5856 178.825 40.6828 180.374 41.6554C182.19 42.7962 182.576 43.4932 181.811 44.2455C181.465 44.5851 181.352 44.5941 177.446 44.5941C173.614 44.5941 173.429 44.6081 173.274 44.9099C173.171 45.1119 173.128 46.5419 173.154 48.8784L173.195 52.531L176.952 52.6138C179.018 52.6593 180.847 52.7598 181.015 52.8372C181.184 52.9146 181.929 53.3394 182.672 53.7813C184.535 54.8903 184.815 55.3756 184.096 56.2501L183.726 56.6999L178.077 56.7325C173.476 56.7591 172.319 56.7223 171.835 56.5339ZM183.92 55.9427C184.227 55.4841 184.221 55.4024 183.852 55.0163C183.558 54.7083 183.341 54.6957 178.363 54.6957C174.536 54.6957 173.132 54.6453 172.996 54.5033C172.861 54.3622 172.812 53.0378 172.812 49.5441C172.812 45.4245 172.845 44.7432 173.053 44.5254C173.26 44.3092 173.862 44.2734 177.296 44.2734C180.805 44.2734 181.333 44.2407 181.578 44.0081C181.926 43.6788 181.935 43.3443 181.605 42.9632C181.371 42.6931 181.029 42.67 177.266 42.67C174.426 42.67 173.127 42.6146 173.006 42.4883C172.881 42.3575 172.854 40.9981 172.908 37.6379C172.95 35.0702 173.016 32.807 173.054 32.6085L173.124 32.2478H178.301C182.738 32.2478 183.526 32.2121 183.818 31.9982C184.217 31.706 184.258 31.252 183.918 30.8963C183.707 30.676 182.934 30.6443 177.758 30.6443C172.466 30.6443 171.81 30.6724 171.559 30.9097C171.292 31.1624 171.278 31.7593 171.278 43.366V55.5569L171.612 55.928L171.945 56.2991H177.813H183.681L183.92 55.9427ZM171.161 43.5548C171.12 31.2789 171.123 31.1273 171.429 30.8076C171.729 30.4942 171.925 30.484 177.675 30.484C184.335 30.484 184.104 30.5436 181.967 29.3743L180.771 28.7202H174.798C169.03 28.7202 168.815 28.7312 168.518 29.0409C168.217 29.356 168.212 29.5754 168.212 41.61C168.212 53.0372 168.23 53.8815 168.48 54.2025C168.711 54.4982 170.907 55.9714 171.125 55.9766C171.167 55.9776 171.183 50.3878 171.161 43.5548ZM183.308 54.3872C183.228 54.3058 182.61 53.927 181.935 53.5454L180.709 52.8517L176.837 52.8016L172.965 52.7515V53.5365C172.965 53.9683 173.011 54.3696 173.067 54.4284C173.124 54.4872 175.484 54.5353 178.312 54.5353C181.459 54.5353 183.397 54.4779 183.308 54.3872ZM181.189 42.3832C181.148 42.3136 180.471 41.9162 179.685 41.5001L178.255 40.7436L175.649 40.7291L173.042 40.7147L172.994 41.4764C172.963 41.9768 173.015 42.2839 173.148 42.3714C173.404 42.5413 181.289 42.5528 181.189 42.3832ZM189.975 56.5662C189.13 56.2427 186.469 54.5344 186.302 54.2072C186.208 54.0247 186.152 49.3204 186.152 41.674C186.152 28.1362 186.109 28.7202 187.101 28.7202C187.652 28.7202 189.772 29.8577 190.579 30.5858L191.136 31.0886L191.212 41.8098L191.289 52.531L195.046 52.6112C197.942 52.673 198.908 52.7461 199.263 52.9299C200.3 53.4678 202.035 54.5789 202.214 54.8198C202.516 55.2259 202.448 56.0495 202.084 56.3945C201.78 56.6816 201.424 56.7022 196.142 56.7377C191.829 56.7666 190.395 56.7268 189.975 56.5662ZM201.915 56.1067C202.208 55.8005 202.129 55.2168 201.759 54.9453C201.467 54.7317 200.694 54.6957 196.404 54.6957C193.647 54.6957 191.282 54.6519 191.148 54.5983C190.93 54.5108 190.906 53.3403 190.906 43.0092C190.906 32.8677 190.878 31.4755 190.667 31.161C190.407 30.7734 189.849 30.691 189.556 30.9971C189.416 31.1434 189.372 34.122 189.372 43.4236C189.372 55.4439 189.378 55.6633 189.679 55.9784C189.975 56.2879 190.19 56.2991 195.859 56.2991C200.222 56.2991 201.779 56.2496 201.915 56.1067ZM189.256 43.5653C189.219 32.4181 189.24 31.1263 189.458 30.8983C189.592 30.7586 189.848 30.6443 190.027 30.6443C190.481 30.6443 190.274 30.4643 188.838 29.6083C187.54 28.8348 186.852 28.7022 186.519 29.1612C186.354 29.3887 186.314 31.7646 186.31 41.7201L186.306 53.9984L186.651 54.3239C186.983 54.6371 189.062 55.9757 189.219 55.9775C189.261 55.978 189.278 50.3925 189.256 43.5653ZM200.949 54.1212C198.947 52.8023 199.205 52.8601 194.931 52.7716L191.059 52.6914V53.5065C191.059 53.9548 191.105 54.3696 191.161 54.4284C191.217 54.4872 193.581 54.5331 196.413 54.5303L201.563 54.5253L200.949 54.1212L200.949 54.1212ZM206.832 55.9438C205.969 55.4838 204.998 54.8443 204.675 54.5228L204.087 53.938L204.128 41.5554L204.169 29.1728L204.531 28.8664C204.875 28.576 205.204 28.5605 210.818 28.5721C214.964 28.5806 216.881 28.6408 217.203 28.7725C218.1 29.1393 220.047 30.3594 220.272 30.6955C220.628 31.2277 220.556 31.8574 220.096 32.2361C219.706 32.557 219.519 32.5684 214.658 32.5684C209.807 32.5684 209.618 32.5799 209.462 32.8842C209.359 33.0862 209.315 34.5162 209.342 36.8527L209.383 40.5054L212.075 40.5856L214.767 40.6657L216.062 41.4458C216.774 41.8748 217.546 42.4114 217.778 42.6383C218.285 43.1337 218.333 43.814 217.893 44.2734C217.603 44.5774 217.38 44.5942 213.638 44.5966C211.44 44.598 209.588 44.6659 209.461 44.7499C209.274 44.8738 209.223 45.5174 209.176 48.3531C209.145 50.252 209.162 51.9868 209.215 52.2084L209.312 52.6112L212.874 52.615C216.251 52.6186 216.48 52.6382 217.28 52.9907C218.528 53.541 220.086 54.5912 220.336 55.0506C220.673 55.6707 220.328 56.4052 219.601 56.6164C219.275 56.711 216.83 56.7787 213.722 56.7792L208.401 56.7802L206.832 55.9438ZM219.955 55.9427C220.262 55.4841 220.256 55.4023 219.887 55.0163C219.592 54.7083 219.375 54.6956 214.397 54.6956C210.57 54.6956 209.166 54.6453 209.03 54.5032C208.895 54.3622 208.846 53.0377 208.846 49.544C208.846 45.4244 208.879 44.7431 209.087 44.5253C209.294 44.3091 209.896 44.2734 213.33 44.2734C216.839 44.2734 217.367 44.2407 217.613 44.008C217.961 43.6787 217.969 43.3443 217.639 42.9632C217.406 42.6931 217.063 42.6699 213.3 42.6699C210.547 42.6699 209.16 42.6127 209.047 42.4945C208.883 42.3234 208.92 33.4651 209.088 32.6085L209.159 32.2477H214.335C218.772 32.2477 219.56 32.212 219.853 31.9981C220.251 31.706 220.293 31.252 219.952 30.8963C219.742 30.6759 218.965 30.6443 213.751 30.6443H207.79L207.552 31.0007C207.341 31.3156 207.313 32.7602 207.313 43.4056C207.313 55.352 207.316 55.4577 207.631 55.8766L207.949 56.2991H213.832H219.716L219.955 55.9427ZM207.195 43.5548C207.155 31.2789 207.158 31.1273 207.463 30.8076C207.763 30.4942 207.96 30.484 213.709 30.484C220.369 30.484 220.139 30.5436 218.001 29.3743L216.805 28.7202H210.844H204.882L204.564 29.1427C204.249 29.5617 204.246 29.6656 204.248 41.6093C204.25 50.8515 204.295 53.7421 204.44 54.0346C204.592 54.3407 206.865 55.9626 207.16 55.9752C207.202 55.977 207.218 50.3878 207.195 43.5548ZM219.427 54.4739C219.427 54.4401 219.026 54.1626 218.535 53.8572C216.873 52.8217 216.648 52.7788 212.641 52.733L208.999 52.6914L208.999 53.5065C209 53.9548 209.046 54.3696 209.102 54.4284C209.207 54.5387 219.427 54.5836 219.427 54.4739ZM217.28 42.4547C217.28 42.3865 215.323 41.1728 214.903 40.9807C214.734 40.9035 213.372 40.801 211.876 40.753C209.693 40.683 209.14 40.7079 209.078 40.8793C208.935 41.2709 208.997 42.1224 209.184 42.3172C209.317 42.457 210.451 42.5097 213.324 42.5097C215.5 42.5097 217.28 42.4849 217.28 42.4547ZM236.754 56.6108C234.32 56.372 233.074 55.9636 231.004 54.7267C228.378 53.1579 226.856 52.0137 225.696 50.7379C223.1 47.8818 222.039 44.8455 222.233 40.8261C222.331 38.7906 222.687 37.4175 223.586 35.6007C225.112 32.5191 227.88 30.1199 231.157 29.0398C232.68 28.5379 235.478 28.4234 237.224 28.7918C238.66 29.0948 240.393 29.7714 241.631 30.5124C242.844 31.2381 242.507 31.2146 241.192 30.4817C240.564 30.132 239.395 29.6134 238.594 29.3294C237.192 28.8325 237.044 28.8129 234.684 28.8134C232.335 28.8139 232.173 28.8351 230.883 29.3098C225.365 31.3405 222.028 36.5221 222.39 42.4975C222.503 44.3648 222.793 45.5798 223.5 47.1468C224.481 49.3217 226.028 51.2076 227.937 52.5546C229.543 53.6879 229.678 53.6951 228.725 52.596C227.394 51.0604 226.511 49.5695 225.903 47.8342C225.402 46.4051 225.352 46.1003 225.289 44.1098C225.24 42.549 225.288 41.5678 225.462 40.6057C226.248 36.2464 230.184 31.926 234.396 30.7996C236.196 30.3182 239.351 30.3522 241.065 30.8715C241.769 31.0846 242.398 31.2244 242.464 31.1821C242.667 31.0507 245.208 32.7484 245.994 33.5411C246.669 34.2209 246.737 34.3543 246.693 34.9133C246.653 35.4174 246.56 35.5746 246.19 35.7589C245.763 35.9721 245.67 35.9498 244.603 35.375C243.979 35.0393 242.962 34.4187 242.343 33.9959C241.01 33.0863 240.03 32.7477 238.364 32.6221C236.585 32.488 234.874 32.8635 233.109 33.7755C230.711 35.0143 228.968 37.0566 227.913 39.866C227.52 40.9124 227.492 41.1505 227.484 43.4717C227.478 45.6703 227.518 46.0817 227.834 47.0382C228.29 48.4194 229.42 50.2177 230.491 51.2686C231.218 51.9821 231.473 52.125 232.423 52.3509C235.523 53.0881 238.614 52.3235 241.354 50.1418C242.354 49.3458 242.572 49.2368 243.02 49.3082C243.529 49.389 245.246 50.3595 246.222 51.1181C247.221 51.8935 246.747 53.0502 244.892 54.3664C242.348 56.1716 239.705 56.9004 236.754 56.6108ZM241.584 55.7675C243.038 55.2652 245.095 53.9765 245.865 53.086C246.517 52.3307 246.587 51.7248 246.052 51.4698C245.613 51.2607 245.153 51.4821 243.65 52.6253C242.424 53.5577 241.535 53.9746 239.897 54.3856C234.565 55.7235 229.243 52.4443 227.432 46.7053C227.103 45.6649 227.044 45.1803 227.044 43.5519C227.044 41.8926 227.102 41.4402 227.465 40.2649C228.936 35.4992 232.622 32.532 237.367 32.2945C239.843 32.1706 241.781 32.8338 244.407 34.7039C245.409 35.4176 245.731 35.5724 246 35.4692C246.537 35.2632 246.511 34.6197 245.939 33.9379C245.328 33.2105 242.892 31.6943 241.442 31.1397C240.424 30.75 240.188 30.7247 237.597 30.7268C234.997 30.729 234.772 30.7537 233.717 31.1548C230.523 32.3685 227.356 35.5152 226.179 38.6461C225.342 40.8693 225.138 44.4604 225.722 46.6818C226.922 51.2478 230.283 54.7638 234.607 55.9758C235.573 56.2465 236.126 56.2896 238.057 56.2447C240.047 56.1984 240.523 56.134 241.584 55.7675ZM240.861 53.9197C241.915 53.5464 242.689 53.1227 243.838 52.2916C244.692 51.6737 245.5 51.1655 245.634 51.1624C246.025 51.1531 245.151 50.4875 243.953 49.8813C242.904 49.3511 242.883 49.3475 242.39 49.617C242.115 49.7673 241.56 50.1652 241.157 50.5013C238.685 52.5586 234.759 53.3478 231.848 52.3723C231.113 52.126 231.836 52.7617 232.97 53.3588C234.665 54.2514 235.944 54.5468 237.827 54.4807C239.134 54.4348 239.705 54.3293 240.861 53.9197ZM244.267 34.8143C243.794 34.4287 242.121 33.4799 242.121 33.5974C242.121 33.6883 244.435 35.1364 244.571 35.1304C244.615 35.1284 244.478 34.9862 244.267 34.8143ZM47.3237 56.3731C47.1757 55.9698 47.2194 55.8658 47.4001 56.1909C47.4897 56.3518 47.5306 56.5173 47.4911 56.5585C47.4516 56.5998 47.3763 56.5164 47.3237 56.3731ZM48.9269 56.3659C48.9343 56.1791 48.9706 56.1411 49.0196 56.269C49.0639 56.3848 49.0584 56.5231 49.0075 56.5763C48.9565 56.6296 48.9203 56.5349 48.9269 56.3659ZM152.955 56.32C152.062 55.8941 150.229 54.6946 150.009 54.3934C149.864 54.1939 149.82 51.2931 149.816 41.748C149.811 29.5719 149.816 29.3562 150.118 29.0409C150.287 28.8645 150.573 28.7202 150.753 28.7202C151.182 28.7202 154.084 30.349 154.516 30.8321C154.7 31.0375 156.217 34.0415 157.889 37.5076C159.561 40.9737 160.997 43.8238 161.082 43.8411C161.181 43.8615 161.262 41.3336 161.312 36.6416C161.396 28.6449 161.364 28.8806 162.374 28.8806C163.223 28.8806 165.944 30.5977 166.234 31.3166C166.411 31.7543 166.448 33.9379 166.448 43.8196V55.7922L166.077 56.206C165.844 56.4651 165.54 56.6198 165.263 56.6198C164.692 56.6198 162.099 55.0297 161.52 54.3242C161.279 54.0308 159.771 51.0358 158.169 47.6687C156.568 44.3016 155.188 41.5709 155.103 41.6005C155.003 41.6351 154.921 44.1786 154.871 48.7117C154.807 54.6569 154.758 55.8172 154.565 56.0742C154.08 56.7172 153.858 56.7511 152.955 56.32ZM154.17 56.0471C154.303 55.9085 154.427 55.7823 154.447 55.7665C154.466 55.7508 154.518 51.3184 154.562 45.9168C154.606 40.5153 154.697 36.0778 154.766 36.0558C154.937 36.0011 154.794 35.7128 159.639 45.9227C162.015 50.9305 164.158 55.3138 164.4 55.6634C164.879 56.3557 165.396 56.4948 165.824 56.0471C166.039 55.8225 166.065 54.4794 166.065 43.6733C166.065 32.6188 166.043 31.5257 165.811 31.2583C165.521 30.9233 164.987 30.8741 164.716 31.1574C164.577 31.3029 164.532 33.7257 164.532 41.079C164.532 49.2587 164.497 50.8381 164.315 50.9959C164.196 51.0992 164.067 51.1261 164.028 51.0557C163.989 50.9852 161.879 46.5984 159.339 41.3071C156.799 36.0158 154.555 31.4714 154.353 31.2085C154.025 30.7819 153.938 30.7478 153.546 30.8917L153.108 31.0529L153.068 43.4756C153.031 55.0121 153.047 55.9125 153.289 56.0987C153.636 56.3655 153.879 56.3513 154.17 56.0471ZM152.758 44.0342C152.735 37.4648 152.772 31.8549 152.842 31.5676C152.926 31.2184 153.125 30.9622 153.441 30.7947L153.913 30.5443L152.667 29.8076C151.08 28.8694 150.811 28.7889 150.34 29.1115L149.965 29.369V41.642C149.965 49.7726 150.018 54.0194 150.123 54.2243C150.255 54.483 152.47 55.9783 152.721 55.9784C152.765 55.9785 152.782 50.6035 152.758 44.0342ZM159.549 46.1454C156.992 40.7814 154.859 36.3499 154.809 36.2977C154.759 36.2456 154.718 37.3333 154.718 38.7149C154.718 41.1104 154.732 41.2269 155.021 41.2269C155.268 41.2269 155.894 42.4347 158.376 47.6978C161.673 54.6883 161.535 54.4705 163.317 55.4896C163.77 55.7485 164.153 55.9464 164.169 55.9293C164.185 55.9122 162.106 51.5095 159.549 46.1454ZM164.415 40.9485L164.455 31.0495L164.9 30.8263L165.346 30.603L164.989 30.3219C164.268 29.7531 162.754 29.0408 162.266 29.0409C161.868 29.0409 161.733 29.1263 161.614 29.4522C161.525 29.6969 161.465 32.7268 161.465 36.9305C161.465 43.2236 161.438 44.0181 161.22 44.1852C161.003 44.3506 161.157 44.7543 162.524 47.6101C163.376 49.3906 164.141 50.8475 164.224 50.8475C164.322 50.8475 164.39 47.3302 164.415 40.9485ZM49.0897 55.8181C49.0897 55.6858 49.149 55.4332 49.2215 55.2569C49.3046 55.0547 49.3533 55.0251 49.3533 55.1767C49.3533 55.309 49.294 55.5615 49.2215 55.7379C49.1384 55.94 49.0897 55.9697 49.0897 55.8181ZM47.017 55.5713C46.8691 55.1681 46.9127 55.0641 47.0935 55.3891C47.183 55.5501 47.2239 55.7155 47.1844 55.7568C47.1449 55.7981 47.0696 55.7146 47.017 55.5713ZM78.1257 55.1767C77.9949 54.9121 77.9223 54.6957 77.9645 54.6957C78.0066 54.6957 78.1482 54.9121 78.279 55.1767C78.4099 55.4413 78.4824 55.6577 78.4402 55.6577C78.3981 55.6577 78.2565 55.4413 78.1257 55.1767ZM46.7104 54.7696C46.5624 54.3664 46.606 54.2624 46.7868 54.5874C46.8763 54.7484 46.9172 54.9138 46.8777 54.9551C46.8383 54.9964 46.7629 54.9129 46.7104 54.7696ZM117.104 53.8055C116.792 53.1457 116.54 52.553 116.545 52.4883C116.549 52.4236 116.829 52.9373 117.168 53.6298C117.506 54.3224 117.758 54.9151 117.728 54.947C117.697 54.9789 117.417 54.4653 117.104 53.8055ZM49.3869 54.6021C49.3943 54.4153 49.4306 54.3773 49.4796 54.5053C49.5239 54.621 49.5184 54.7593 49.4675 54.8126C49.4165 54.8659 49.3803 54.7712 49.3869 54.6021ZM77.5733 54.1745C77.4745 53.9761 77.2192 53.4891 77.006 53.0922C76.7929 52.6954 76.6913 52.4429 76.7802 52.531C77.0032 52.7522 77.9452 54.5353 77.839 54.5353C77.7918 54.5353 77.6722 54.373 77.5733 54.1745ZM46.4037 53.9679C46.2557 53.5647 46.2994 53.4607 46.4801 53.7857C46.5696 53.9467 46.6105 54.1121 46.5711 54.1534C46.5316 54.1947 46.4563 54.1112 46.4037 53.9679ZM49.5497 54.0543C49.5497 53.922 49.609 53.6695 49.6815 53.4931C49.7646 53.291 49.8133 53.2613 49.8133 53.4129C49.8133 53.5452 49.754 53.7977 49.6815 53.9741C49.5984 54.1763 49.5497 54.2059 49.5497 54.0543ZM88.6542 53.6466C88.3973 53.0569 88.4463 52.9312 88.7241 53.4672C88.8539 53.7175 88.9313 53.9523 88.8963 53.989C88.8612 54.0256 88.7523 53.8716 88.6542 53.6466ZM46.097 53.1662C45.949 52.763 45.9927 52.659 46.1734 52.984C46.2629 53.145 46.3039 53.3104 46.2644 53.3517C46.2249 53.393 46.1496 53.3095 46.097 53.1662ZM49.8469 52.8384C49.8543 52.6516 49.8906 52.6136 49.9396 52.7415C49.9839 52.8572 49.9784 52.9955 49.9275 53.0488C49.8765 53.1021 49.8403 53.0074 49.8469 52.8384ZM87.8846 51.7866C87.6176 51.1545 87.4238 50.6116 87.4539 50.5801C87.484 50.5486 87.7271 51.04 87.9941 51.6721C88.2611 52.3042 88.4549 52.8471 88.4248 52.8786C88.3946 52.9101 88.1516 52.4187 87.8846 51.7866ZM45.7903 52.3645C45.6424 51.9613 45.686 51.8573 45.8668 52.1823C45.9563 52.3432 45.9972 52.5087 45.9577 52.55C45.9182 52.5913 45.8429 52.5078 45.7903 52.3645ZM50.0097 52.2905C50.0097 52.1582 50.069 51.9057 50.1415 51.7293C50.2246 51.5272 50.2733 51.4976 50.2733 51.6492C50.2733 51.7814 50.214 52.034 50.1415 52.2104C50.0584 52.4125 50.0097 52.4421 50.0097 52.2905ZM74.7713 49.0215C73.791 47.2236 72.9891 45.6903 72.9894 45.6143C72.9897 45.5382 73.7203 46.8108 74.6131 48.4423C76.4253 51.7542 76.7043 52.2905 76.6153 52.2905C76.5815 52.2905 75.7517 50.8195 74.7713 49.0215ZM115.878 51.0797C115.566 50.4199 115.314 49.8272 115.318 49.7625C115.322 49.6978 115.602 50.2115 115.941 50.904C116.279 51.5966 116.531 52.1893 116.501 52.2212C116.47 52.2531 116.19 51.7394 115.878 51.0797ZM45.4836 51.5628C45.3357 51.1596 45.3793 51.0555 45.5601 51.3806C45.6496 51.5415 45.6905 51.707 45.651 51.7483C45.6116 51.7896 45.5362 51.7061 45.4836 51.5628ZM50.307 51.0746C50.3143 50.8878 50.3506 50.8498 50.3996 50.9777C50.4439 51.0935 50.4384 51.2318 50.3875 51.285C50.3365 51.3383 50.3003 51.2436 50.307 51.0746ZM45.177 50.7611C45.029 50.3579 45.0727 50.2538 45.2534 50.5789C45.3429 50.7398 45.3838 50.9053 45.3444 50.9466C45.3049 50.9878 45.2296 50.9044 45.177 50.7611ZM50.4697 50.5268C50.4697 50.3945 50.529 50.1419 50.6015 49.9656C50.6846 49.7634 50.7333 49.7338 50.7333 49.8854C50.7333 50.0177 50.674 50.2702 50.6015 50.4466C50.5185 50.6487 50.4697 50.6784 50.4697 50.5268ZM87.1209 49.9587C86.8639 49.3691 86.913 49.2433 87.1908 49.7793C87.3205 50.0296 87.398 50.2644 87.3629 50.3011C87.3278 50.3378 87.2189 50.1837 87.1209 49.9587ZM44.8703 49.9593C44.7223 49.5561 44.766 49.4521 44.9467 49.7771C45.0362 49.9381 45.0772 50.1035 45.0377 50.1448C44.9982 50.1861 44.9229 50.1026 44.8703 49.9593ZM50.767 49.3108C50.7743 49.124 50.8107 49.086 50.8596 49.2139C50.9039 49.3297 50.8985 49.468 50.8475 49.5213C50.7966 49.5745 50.7603 49.4798 50.767 49.3108ZM114.727 48.5143C114.458 47.9422 114.24 47.4214 114.244 47.3569C114.248 47.2925 114.494 47.7341 114.791 48.3383C115.087 48.9426 115.305 49.4634 115.274 49.4957C115.243 49.528 114.997 49.0863 114.727 48.5143ZM44.5636 49.1576C44.4157 48.7544 44.4593 48.6504 44.6401 48.9754C44.7296 49.1364 44.7705 49.3018 44.731 49.3431C44.6915 49.3844 44.6162 49.3009 44.5636 49.1576ZM86.3512 48.0987C86.0842 47.4666 85.8904 46.9237 85.9205 46.8922C85.9506 46.8607 86.1937 47.3521 86.4607 47.9842C86.7277 48.6163 86.9215 49.1592 86.8914 49.1907C86.8613 49.2222 86.6182 48.7308 86.3512 48.0987ZM51.004 48.4423C51.0575 48.1337 51.1617 47.7368 51.2355 47.5604C51.3277 47.3403 51.3392 47.4157 51.2724 47.801C51.2189 48.1096 51.1147 48.5065 51.0409 48.6828C50.9488 48.903 50.9372 48.8276 51.004 48.4423ZM44.2569 48.3559C44.109 47.9527 44.1526 47.8487 44.3334 48.1737C44.4229 48.3347 44.4638 48.5001 44.4243 48.5414C44.3849 48.5827 44.3095 48.4992 44.2569 48.3559ZM43.9503 47.5542C43.8023 47.151 43.846 47.047 44.0267 47.372C44.1162 47.533 44.1571 47.6984 44.1177 47.7397C44.0782 47.781 44.0029 47.6975 43.9503 47.5542ZM51.3898 46.9992C51.3898 46.867 51.4491 46.6144 51.5216 46.438C51.6046 46.2359 51.6533 46.2063 51.6533 46.3579C51.6533 46.4902 51.594 46.7427 51.5216 46.9191C51.4385 47.1212 51.3898 47.1508 51.3898 46.9992ZM43.6436 46.7525C43.4956 46.3493 43.5393 46.2453 43.72 46.5703C43.8095 46.7313 43.8505 46.8967 43.811 46.938C43.7715 46.9793 43.6962 46.8958 43.6436 46.7525ZM113.501 45.7885C113.231 45.2164 113.013 44.6956 113.018 44.6312C113.022 44.5667 113.268 45.0083 113.564 45.6125C113.861 46.2168 114.078 46.7376 114.047 46.7699C114.016 46.8022 113.77 46.3605 113.501 45.7885ZM85.5875 46.2708C85.3306 45.6812 85.3796 45.5554 85.6574 46.0914C85.7871 46.3418 85.8646 46.5766 85.8295 46.6132C85.7944 46.6499 85.6855 46.4958 85.5875 46.2708ZM43.3369 45.9508C43.1889 45.5476 43.2326 45.4436 43.4134 45.7686C43.5029 45.9296 43.5438 46.095 43.5043 46.1363C43.4648 46.1776 43.3895 46.0941 43.3369 45.9508ZM51.687 45.7833C51.6944 45.5965 51.7307 45.5585 51.7796 45.6864C51.8239 45.8022 51.8185 45.9405 51.7675 45.9938C51.7166 46.047 51.6803 45.9523 51.687 45.7833ZM85.1275 45.1484C84.8706 44.5588 84.9196 44.433 85.1974 44.9691C85.3271 45.2194 85.4046 45.4542 85.3695 45.4908C85.3344 45.5275 85.2255 45.3734 85.1275 45.1484ZM43.0302 45.1491C42.8823 44.7459 42.9259 44.6418 43.1067 44.9669C43.1962 45.1278 43.2371 45.2933 43.1976 45.3346C43.1582 45.3758 43.0828 45.2924 43.0302 45.1491ZM51.8498 45.2355C51.8498 45.1032 51.9091 44.8507 51.9816 44.6743C52.0646 44.4721 52.1134 44.4425 52.1134 44.5941C52.1134 44.7264 52.0541 44.9789 51.9816 45.1553C51.8985 45.3574 51.8498 45.3871 51.8498 45.2355ZM73.0076 45.297C73.1218 44.9441 81.747 37.6795 81.9926 37.7293C82.1289 37.757 82.2709 37.8753 82.3081 37.9923C82.3628 38.164 82.3182 38.1673 82.0764 38.0094C81.808 37.8341 81.373 38.1596 77.8813 41.1479C75.7386 42.9816 73.7525 44.7056 73.4676 44.979C73.1828 45.2523 72.9757 45.3954 73.0076 45.297ZM42.7236 44.3474C42.5756 43.9442 42.6192 43.8401 42.8 44.1652C42.8895 44.3261 42.9304 44.4916 42.891 44.5329C42.8515 44.5742 42.7761 44.4907 42.7236 44.3474ZM84.3578 43.2885C84.0908 42.6564 83.897 42.1134 83.9271 42.0819C83.9572 42.0504 84.2003 42.5418 84.4673 43.1739C84.7343 43.806 84.9281 44.349 84.898 44.3805C84.8679 44.4119 84.6248 43.9206 84.3578 43.2885ZM112.351 43.2229C112.039 42.5631 111.787 41.9704 111.791 41.9057C111.795 41.841 112.076 42.3547 112.414 43.0473C112.753 43.7398 113.005 44.3325 112.974 44.3644C112.944 44.3964 112.663 43.8827 112.351 43.2229ZM52.147 44.0195C52.1544 43.8328 52.1907 43.7948 52.2397 43.9227C52.2839 44.0384 52.2785 44.1767 52.2276 44.23C52.1766 44.2833 52.1404 44.1886 52.147 44.0195ZM42.4169 43.5457C42.2689 43.1425 42.3126 43.0384 42.4933 43.3635C42.5828 43.5244 42.6238 43.6899 42.5843 43.7312C42.5448 43.7725 42.4695 43.689 42.4169 43.5457ZM52.3098 43.4717C52.3098 43.3394 52.3691 43.0869 52.4416 42.9105C52.5246 42.7084 52.5734 42.6787 52.5734 42.8303C52.5734 42.9626 52.5141 43.2152 52.4416 43.3915C52.3585 43.5937 52.3098 43.6233 52.3098 43.4717ZM42.1102 42.744C41.9622 42.3408 42.0059 42.2367 42.1867 42.5618C42.2762 42.7227 42.3171 42.8882 42.2776 42.9295C42.2381 42.9707 42.1628 42.8873 42.1102 42.744ZM52.607 42.2558C52.6144 42.069 52.6507 42.031 52.6997 42.1589C52.744 42.2747 52.7385 42.413 52.6876 42.4662C52.6366 42.5195 52.6004 42.4248 52.607 42.2558ZM41.8035 41.9423C41.6556 41.5391 41.6992 41.435 41.88 41.7601C41.9695 41.921 42.0104 42.0865 41.9709 42.1277C41.9314 42.169 41.8561 42.0856 41.8035 41.9423ZM52.7698 41.708C52.7698 41.5757 52.8291 41.3231 52.9016 41.1468C52.9847 40.9446 53.0334 40.915 53.0334 41.0666C53.0334 41.1989 52.9741 41.4514 52.9016 41.6278C52.8185 41.8299 52.7698 41.8596 52.7698 41.708ZM83.2844 40.723C83.0174 40.0909 82.8236 39.548 82.8537 39.5165C82.8839 39.485 83.1269 39.9764 83.3939 40.6085C83.6609 41.2406 83.8547 41.7835 83.8246 41.815C83.7945 41.8465 83.5514 41.3551 83.2844 40.723ZM111.201 40.6575C110.931 40.0855 110.713 39.5647 110.718 39.5002C110.722 39.4357 110.968 39.8774 111.264 40.4816C111.561 41.0858 111.778 41.6066 111.747 41.6389C111.716 41.6712 111.47 41.2296 111.201 40.6575ZM41.4969 41.1406C41.3489 40.7373 41.3925 40.6333 41.5733 40.9584C41.6628 41.1193 41.7037 41.2848 41.6643 41.326C41.6248 41.3673 41.5494 41.2839 41.4969 41.1406ZM52.9881 40.4722C52.9049 40.2437 52.9225 40.2253 53.074 40.3825C53.1788 40.4912 53.2259 40.6206 53.1787 40.67C53.1314 40.7193 53.0457 40.6303 52.9881 40.4722ZM41.1902 40.3388C41.0422 39.9356 41.0859 39.8316 41.2666 40.1566C41.3561 40.3176 41.3971 40.483 41.3576 40.5243C41.3181 40.5656 41.2428 40.4821 41.1902 40.3388ZM51.5982 40.1045C51.1879 39.9953 51.1796 39.9821 51.5216 39.9821C51.7324 39.9821 52.1119 40.0372 52.3649 40.1045C52.7752 40.2137 52.7835 40.2269 52.4416 40.2269C52.2307 40.2269 51.8512 40.1718 51.5982 40.1045ZM50.5632 39.838C50.6686 39.7935 50.8411 39.7935 50.9465 39.838C51.052 39.8825 50.9657 39.9189 50.7549 39.9189C50.544 39.9189 50.4578 39.8825 50.5632 39.838ZM40.8835 39.5371C40.7355 39.1339 40.7792 39.0299 40.96 39.3549C41.0495 39.5159 41.0904 39.6813 41.0509 39.7226C41.0114 39.7639 40.9361 39.6804 40.8835 39.5371ZM49.7228 39.6727C49.8719 39.6321 50.079 39.6348 50.1828 39.6787C50.2866 39.7226 50.1645 39.7559 49.9115 39.7526C49.6585 39.7493 49.5736 39.7134 49.7228 39.6727ZM48.2248 39.4632C47.8145 39.354 47.8062 39.3408 48.1481 39.3408C48.359 39.3408 48.7385 39.3958 48.9915 39.4632C49.4018 39.5723 49.4101 39.5856 49.0681 39.5856C48.8573 39.5856 48.4778 39.5305 48.2248 39.4632ZM47.1898 39.1966C47.2952 39.1521 47.4677 39.1521 47.5731 39.1966C47.6785 39.2411 47.5923 39.2775 47.3814 39.2775C47.1706 39.2775 47.0843 39.2411 47.1898 39.1966ZM82.5207 38.8951C82.2638 38.3055 82.3128 38.1797 82.5906 38.7157C82.7204 38.966 82.7978 39.2008 82.7627 39.2375C82.7277 39.2742 82.6188 39.1201 82.5207 38.8951ZM110.051 38.092C109.739 37.4322 109.487 36.8395 109.491 36.7748C109.495 36.7101 109.776 37.2238 110.114 37.9163C110.453 38.6088 110.705 39.2016 110.674 39.2335C110.644 39.2654 110.363 38.7517 110.051 38.092ZM46.3493 39.0314C46.4985 38.9907 46.7055 38.9934 46.8093 39.0373C46.9131 39.0812 46.7911 39.1145 46.5381 39.1112C46.2851 39.108 46.2001 39.072 46.3493 39.0314ZM40.5768 38.7354C40.4289 38.3322 40.4725 38.2282 40.6533 38.5532C40.7428 38.7142 40.7837 38.8796 40.7442 38.9209C40.7047 38.9622 40.6294 38.8787 40.5768 38.7354ZM44.864 38.8429C44.618 38.7872 44.3884 38.6334 44.354 38.5011C44.3134 38.3453 44.336 38.3233 44.418 38.4384C44.4877 38.5362 44.8897 38.6901 45.3114 38.7802C45.733 38.8704 45.9056 38.9442 45.6947 38.9442C45.4839 38.9442 45.1101 38.8986 44.864 38.8429ZM40.2702 37.9337C40.1222 37.5305 40.1658 37.4265 40.3466 37.7515C40.4361 37.9125 40.477 38.0779 40.4376 38.1192C40.3981 38.1605 40.3227 38.077 40.2702 37.9337ZM44.3285 38.1003C44.3285 38.0121 44.4948 37.6152 44.698 37.2184C44.9012 36.8215 45.0675 36.569 45.0675 36.6572C45.0675 36.7454 44.9012 37.1422 44.698 37.5391C44.4948 37.9359 44.3285 38.1884 44.3285 38.1003ZM39.9635 37.132C39.8155 36.7288 39.8592 36.6247 40.0399 36.9498C40.1294 37.1107 40.1704 37.2762 40.1309 37.3175C40.0914 37.3588 40.0161 37.2753 39.9635 37.132ZM39.6568 36.3303C39.5088 35.9271 39.5525 35.823 39.7332 36.1481C39.8228 36.309 39.8637 36.4745 39.8242 36.5158C39.7847 36.5571 39.7094 36.4736 39.6568 36.3303ZM108.824 35.3661C108.512 34.7064 108.26 34.1136 108.264 34.049C108.268 33.9843 108.549 34.498 108.887 35.1905C109.226 35.883 109.478 36.4758 109.447 36.5077C109.417 36.5396 109.136 36.0259 108.824 35.3661ZM45.4029 35.6951C45.4029 35.6069 45.6377 35.0658 45.9247 34.4926C46.2117 33.9193 46.4465 33.5225 46.4465 33.6107C46.4465 33.6989 46.2117 34.24 45.9247 34.8132C45.6377 35.3865 45.4029 35.7833 45.4029 35.6951ZM107.674 32.8008C107.404 32.2287 107.187 31.7079 107.191 31.6434C107.195 31.579 107.441 32.0206 107.737 32.6248C108.034 33.2291 108.251 33.7499 108.22 33.7822C108.189 33.8145 107.944 33.3728 107.674 32.8008ZM46.6299 32.9693C46.6299 32.8811 46.8991 32.2678 47.2281 31.6064C47.5571 30.945 47.8263 30.476 47.8263 30.5642C47.8263 30.6524 47.5571 31.2657 47.2281 31.9271C46.8991 32.5885 46.6299 33.0575 46.6299 32.9693ZM106.524 30.2352C106.212 29.5754 105.96 28.9827 105.964 28.918C105.968 28.8533 106.249 29.367 106.587 30.0595C106.926 30.7521 107.178 31.3448 107.147 31.3767C107.117 31.4086 106.836 30.895 106.524 30.2352ZM47.8566 30.2435C47.8566 30.1553 48.1258 29.542 48.4548 28.8806C48.7838 28.2192 49.053 27.7502 49.053 27.8384C49.053 27.9265 48.7838 28.5399 48.4548 29.2013C48.1258 29.8627 47.8566 30.3317 47.8566 30.2435ZM105.297 27.5094C104.985 26.8496 104.733 26.2569 104.737 26.1922C104.742 26.1275 105.022 26.6412 105.361 27.3337C105.699 28.0263 105.951 28.619 105.921 28.6509C105.89 28.6828 105.61 28.1691 105.297 27.5094ZM49.0833 27.5177C49.0833 27.4295 49.3525 26.8162 49.6815 26.1548C50.0105 25.4934 50.2797 25.0244 50.2797 25.1125C50.2797 25.2007 50.0105 25.814 49.6815 26.4754C49.3525 27.1369 49.0833 27.6059 49.0833 27.5177ZM104.147 24.944C103.877 24.372 103.66 23.8512 103.664 23.7867C103.668 23.7222 103.914 24.1638 104.211 24.7681C104.507 25.3723 104.724 25.8931 104.694 25.9254C104.663 25.9577 104.417 25.5161 104.147 24.944ZM50.4631 24.4712C50.4631 24.383 50.6979 23.8418 50.9849 23.2686C51.2719 22.6954 51.5067 22.2985 51.5067 22.3867C51.5067 22.4749 51.2719 23.0161 50.9849 23.5893C50.6979 24.1625 50.4631 24.5594 50.4631 24.4712ZM102.92 22.2182C102.65 21.6461 102.433 21.1253 102.437 21.0609C102.441 20.9964 102.687 21.438 102.984 22.0423C103.28 22.6465 103.498 23.1673 103.467 23.1996C103.436 23.2319 103.19 22.7903 102.92 22.2182ZM51.8431 21.4247C51.8431 21.3365 52.0779 20.7953 52.3649 20.2221C52.6519 19.6489 52.8867 19.252 52.8867 19.3402C52.8867 19.4284 52.6519 19.9696 52.3649 20.5428C52.0779 21.116 51.8431 21.5129 51.8431 21.4247ZM101.771 19.6526C101.458 18.9928 101.207 18.4001 101.211 18.3354C101.215 18.2708 101.495 18.7844 101.834 19.477C102.172 20.1695 102.424 20.7622 102.394 20.7941C102.363 20.8261 102.083 20.3124 101.771 19.6526ZM53.0701 18.6989C53.0701 18.6107 53.3393 17.9974 53.6683 17.3359C53.9973 16.6745 54.2665 16.2055 54.2665 16.2937C54.2665 16.3819 53.9973 16.9952 53.6683 17.6566C53.3393 18.318 53.0701 18.787 53.0701 18.6989ZM100.62 17.0872C100.35 16.5152 100.133 15.9944 100.137 15.9299C100.141 15.8654 100.387 16.3071 100.684 16.9113C100.98 17.5155 101.198 18.0363 101.167 18.0686C101.136 18.1009 100.89 17.6593 100.62 17.0872ZM54.2968 15.973C54.2968 15.8849 54.566 15.2715 54.895 14.6101C55.224 13.9487 55.4932 13.4797 55.4932 13.5679C55.4932 13.6561 55.224 14.2694 54.895 14.9308C54.566 15.5922 54.2968 16.0612 54.2968 15.973ZM99.3935 14.3614C99.1237 13.7894 98.9064 13.2686 98.9105 13.2041C98.9147 13.1396 99.1607 13.5813 99.4572 14.1855C99.7537 14.7897 99.971 15.3105 99.9401 15.3428C99.9092 15.3751 99.6633 14.9335 99.3935 14.3614ZM55.6766 12.9265C55.6766 12.8384 55.9114 12.2972 56.1984 11.724C56.4854 11.1507 56.7202 10.7539 56.7202 10.8421C56.7202 10.9303 56.4854 11.4714 56.1984 12.0447C55.9114 12.6179 55.6766 13.0147 55.6766 12.9265ZM98.2439 11.7958C97.9317 11.1361 97.6797 10.5434 97.6839 10.4787C97.6882 10.414 97.9686 10.9277 98.3071 11.6202C98.6456 12.3127 98.8976 12.9055 98.8671 12.9374C98.8365 12.9693 98.5561 12.4556 98.2439 11.7958ZM97.0934 9.23048C96.8236 8.65842 96.6063 8.13762 96.6105 8.07315C96.6146 8.00868 96.8606 8.45031 97.1571 9.05454C97.4536 9.65877 97.6709 10.1796 97.6401 10.2119C97.6092 10.2442 97.3632 9.80254 97.0934 9.23048ZM95.8667 6.50467C95.5969 5.93261 95.3796 5.41181 95.3838 5.34734C95.3879 5.28287 95.6339 5.72449 95.9304 6.32872C96.2269 6.93296 96.4442 7.45375 96.4134 7.48605C96.3825 7.51835 96.1365 7.07673 95.8667 6.50467ZM94.64 3.77885C94.3702 3.20679 94.1529 2.68599 94.1571 2.62152C94.1612 2.55705 94.4072 2.99867 94.7037 3.60291C95.0002 4.20714 95.2175 4.72794 95.1867 4.76024C95.1558 4.79253 94.9098 4.35091 94.64 3.77885Z" fill="#F5EB6E"/>
<path d="M49.8713 66.2358C49.9194 65.9296 51.8662 58.4345 54.1974 49.5801C56.9606 39.0844 58.3836 33.4265 58.2858 33.3242C58.1174 33.1481 56.6288 32.8573 54.3966 32.5646C53.5744 32.4567 52.9016 32.2997 52.9016 32.2156C52.9016 32.0809 54.2809 28.4826 58.2058 18.3781C61.7294 9.30671 64.6788 1.65649 64.7738 1.34179L64.8826 0.981018H79.1237C88.4523 0.981018 93.3974 1.03633 93.4595 1.14136C93.5116 1.22955 93.4764 1.3017 93.3812 1.3017C93.2861 1.3017 92.841 2.11343 92.3922 3.10555C91.9434 4.09767 89.2586 9.91547 86.426 16.034C83.5934 22.1525 81.3128 27.2214 81.3581 27.298C81.4035 27.3747 83.1673 27.4375 85.2777 27.4375C87.7052 27.4375 89.0961 27.495 89.0638 27.5939C89.0357 27.68 82.6087 34.179 74.7816 42.0361C66.9545 49.8933 60.4899 56.4791 60.4159 56.6712C60.3418 56.8634 60.2769 56.9251 60.2715 56.8084C60.2662 56.6917 60.1659 56.6195 60.0487 56.6481C59.9315 56.6766 57.574 58.9708 54.8096 61.7462C50.2134 66.3611 49.7911 66.745 49.8713 66.2358ZM20.4706 56.9245C18.3622 56.8554 13.0237 56.6899 8.6072 56.5568C4.19071 56.4237 0.540707 56.2765 0.496076 56.2299C0.451445 56.1832 2.26516 51.9406 4.52656 46.8019C6.78795 41.6632 10.2898 33.7068 12.3085 29.1211C14.3272 24.5353 16.724 19.0877 17.6347 17.0152C18.5454 14.9428 20.1328 11.3351 21.1623 8.99812C22.1918 6.66114 23.227 4.30663 23.4628 3.76588L23.8916 2.7827L26.3213 2.68051C27.6575 2.62431 31.718 2.50529 35.3444 2.41603C38.9708 2.32677 43.9735 2.18455 46.4614 2.09998C51.859 1.91651 54.2648 1.90565 54.0385 2.06578C53.947 2.13057 53.6975 2.58043 53.4841 3.06547C53.2707 3.5505 50.5949 9.61143 47.5378 16.5342C44.4807 23.457 41.3954 30.4485 40.6817 32.0709C39.916 33.8112 39.4153 35.1463 39.4605 35.327C39.5212 35.5699 39.4941 35.596 39.3294 35.453C39.1686 35.3134 39.0712 35.3566 38.898 35.6443C38.7749 35.8486 36.5859 40.7599 34.0335 46.5583L29.3927 57.1008L26.8484 57.0755C25.449 57.0616 22.579 56.9936 20.4706 56.9245ZM151.461 55.2559C150.812 54.8586 150.21 54.3943 150.123 54.2242C150.018 54.0194 149.965 49.7726 149.965 41.642V29.369L150.34 29.1115C150.811 28.7889 151.08 28.8694 152.667 29.8076L153.913 30.5442L153.441 30.7947C153.125 30.9621 152.926 31.2183 152.842 31.5675C152.772 31.8548 152.735 37.4648 152.758 44.0342C152.782 50.6035 152.765 55.9784 152.721 55.9784C152.677 55.9784 152.11 55.6533 151.461 55.2559ZM163.317 55.4896C161.535 54.4704 161.673 54.6882 158.376 47.6978C155.894 42.4347 155.268 41.2269 155.021 41.2269C154.732 41.2269 154.718 41.1103 154.718 38.7149C154.718 37.3333 154.759 36.2455 154.809 36.2977C154.925 36.4195 164.208 55.8879 164.169 55.9292C164.153 55.9463 163.77 55.7485 163.317 55.4896ZM169.898 55.2606C168.018 54.0928 168.212 55.6623 168.212 41.61C168.212 29.5754 168.217 29.356 168.518 29.0409C168.815 28.7312 169.03 28.7202 174.798 28.7202H180.771L181.967 29.3742C184.104 30.5435 184.335 30.484 177.675 30.484C171.925 30.484 171.729 30.4942 171.429 30.8075C171.123 31.1273 171.12 31.2788 171.161 43.5548C171.183 50.3878 171.167 55.9776 171.125 55.9766C171.083 55.9756 170.531 55.6534 169.898 55.2606ZM188.069 55.313C187.479 54.9479 186.84 54.5028 186.651 54.3238L186.306 53.9984L186.311 41.7201C186.315 31.7645 186.354 29.3887 186.519 29.1611C186.852 28.7022 187.54 28.8347 188.838 29.6083C190.274 30.4643 190.481 30.6443 190.027 30.6443C189.848 30.6443 189.592 30.7586 189.458 30.8982C189.24 31.1262 189.219 32.4181 189.256 43.5653C189.278 50.3925 189.261 55.978 189.219 55.9775C189.177 55.977 188.659 55.678 188.069 55.313ZM205.856 55.1938C205.182 54.7658 204.544 54.2442 204.44 54.0345C204.295 53.7421 204.25 50.8515 204.248 41.6093C204.246 29.6656 204.248 29.5616 204.564 29.1427L204.882 28.7202H210.844H216.805L218.001 29.3742C220.139 30.5435 220.369 30.484 213.709 30.484C207.96 30.484 207.763 30.4942 207.464 30.8075C207.158 31.1273 207.155 31.2788 207.195 43.5548C207.218 50.3878 207.202 55.9769 207.16 55.9751C207.117 55.9734 206.531 55.6217 205.856 55.1938ZM133.404 54.279C132.235 54.0281 129.863 52.9766 129.649 52.6145C129.558 52.4605 129.683 52.4468 130.203 52.5536C131.458 52.8114 134.621 52.7126 135.551 52.3865C137.314 51.7678 138.49 50.9909 139.934 49.4896C141.07 48.308 141.444 47.7905 141.964 46.6785C143.109 44.2297 143.424 42.1043 142.996 39.7036C142.673 37.8893 141.847 36.0663 140.683 34.5966C139.694 33.3491 139.887 33.2774 141.382 34.3369C142.782 35.3286 144.048 36.8781 144.82 38.5454C145.611 40.2552 145.802 41.0362 145.922 43.0536C146.034 44.9451 145.728 46.4863 144.883 48.2774C144.368 49.3687 143.968 49.9241 142.848 51.1014C141.704 52.3046 141.221 52.6854 140.151 53.2288C137.843 54.401 135.599 54.7503 133.404 54.279ZM173.067 54.4284C173.011 54.3696 172.965 53.9683 172.965 53.5365V52.7515L176.837 52.8016L180.709 52.8517L181.936 53.5454C182.61 53.9269 183.228 54.3057 183.308 54.3872C183.397 54.4778 181.459 54.5353 178.312 54.5353C175.484 54.5353 173.124 54.4872 173.067 54.4284ZM191.161 54.4284C191.105 54.3696 191.059 53.9547 191.059 53.5064V52.6914L194.931 52.7715C199.205 52.86 198.948 52.8022 200.95 54.1212L201.563 54.5253L196.413 54.5303C193.581 54.533 191.218 54.4872 191.162 54.4284L191.161 54.4284ZM209.102 54.4284C209.046 54.3696 209 53.9547 208.999 53.5064L208.999 52.6914L212.641 52.733C216.648 52.7787 216.873 52.8216 218.535 53.8572C219.026 54.1626 219.427 54.4401 219.427 54.4739C219.427 54.5836 209.207 54.5386 209.102 54.4284ZM235.125 54.2281C233.911 53.8842 232.025 52.9484 231.686 52.5214C231.485 52.268 231.499 52.2552 231.848 52.3723C232.756 52.6765 233.387 52.7641 234.698 52.7677C237.039 52.7741 239.437 51.9326 241.157 50.5013C241.56 50.1652 242.115 49.7673 242.39 49.617C242.883 49.3474 242.904 49.3511 243.953 49.8813C245.151 50.4874 246.025 51.1531 245.634 51.1623C245.5 51.1655 244.692 51.6737 243.838 52.2916C241.75 53.8022 240.107 54.4007 237.827 54.4807C236.586 54.5242 235.967 54.4663 235.125 54.2281ZM126.419 53.0736C123.444 51.1138 121.343 48.2287 120.493 44.9365C120.045 43.2013 120.048 40.0438 120.499 38.2948C121.607 33.9971 124.834 30.5804 129.111 29.1776C130.662 28.6688 134.152 28.6331 135.704 29.1102C137.122 29.5463 138.874 30.3397 139.768 30.9507C140.563 31.4947 140.527 31.493 139.001 30.915C138.185 30.6061 137.768 30.5664 135.321 30.5654C132.711 30.5642 132.5 30.5874 131.44 30.9921C128.28 32.1997 125.402 34.984 123.986 38.206C123.223 39.9411 122.928 41.6973 123.009 44.0299C123.067 45.7143 123.143 46.163 123.617 47.5932C124.303 49.6678 124.916 50.734 126.328 52.3129C126.948 53.0061 127.393 53.5732 127.316 53.5732C127.24 53.5732 126.836 53.3484 126.419 53.0736ZM228.252 52.7674C226.101 51.2989 224.54 49.4523 223.5 47.1468C222.793 45.5798 222.503 44.3648 222.39 42.4974C222.028 36.5221 225.365 31.3405 230.883 29.3098C232.174 28.8348 232.333 28.814 234.684 28.8145C236.96 28.815 237.231 28.8475 238.441 29.2653C239.616 29.6715 242.507 31.0951 242.395 31.2127C242.37 31.2389 241.773 31.0857 241.068 30.8722C239.351 30.3521 236.197 30.3178 234.396 30.7996C230.184 31.926 226.248 36.2464 225.462 40.6057C225.288 41.5677 225.24 42.5489 225.289 44.1098C225.352 46.1002 225.402 46.4051 225.903 47.8341C226.508 49.5611 227.394 51.06 228.704 52.5711C229.182 53.1223 229.541 53.5732 229.503 53.5732C229.464 53.5732 228.902 53.2106 228.252 52.7674ZM162.524 47.6101C161.157 44.7543 161.003 44.3506 161.22 44.1851C161.438 44.0181 161.465 43.2236 161.465 36.9305C161.465 32.7268 161.525 29.6968 161.614 29.4522C161.733 29.1263 161.868 29.0409 162.266 29.0408C162.754 29.0408 164.268 29.7531 164.989 30.3218L165.346 30.603L164.9 30.8262L164.455 31.0495L164.415 40.9484C164.39 47.3302 164.322 50.8474 164.225 50.8474C164.141 50.8474 163.376 49.3906 162.524 47.6101ZM173.148 42.3714C173.015 42.2838 172.963 41.9767 172.994 41.4764L173.042 40.7146L175.649 40.7291L178.255 40.7436L179.685 41.5001C180.471 41.9162 181.148 42.3135 181.189 42.3831C181.289 42.5528 173.404 42.5413 173.148 42.3714ZM209.184 42.3172C208.997 42.1224 208.935 41.2708 209.078 40.8792C209.14 40.7079 209.693 40.6829 211.876 40.753C213.372 40.801 214.734 40.9034 214.903 40.9806C215.323 41.1728 217.28 42.3865 217.28 42.4546C217.28 42.4849 215.5 42.5096 213.324 42.5096C210.451 42.5096 209.317 42.4569 209.184 42.3172ZM243.306 34.4084C242.654 34.0094 242.121 33.6444 242.121 33.5973C242.121 33.4799 243.794 34.4286 244.267 34.8143C244.882 35.3151 244.577 35.1863 243.306 34.4084Z" fill="#F3E742"/>
<path d="M43.808 46.7181C41.3879 40.3904 39.4079 35.1562 39.4079 35.0867C39.4079 34.9625 43.2042 26.3161 49.8768 11.2429C51.7312 7.05399 53.3911 3.28394 53.5654 2.86505C53.7398 2.44616 53.9604 2.10342 54.0557 2.10342C54.1918 2.10342 57.3691 6.61338 57.8729 7.52168C57.9422 7.64658 57.0752 9.74718 55.6892 12.813C45.4662 35.4245 44.1583 38.3843 44.3073 38.572C44.3929 38.6798 46.3287 39.1196 48.6093 39.5494C50.8898 39.9792 52.8197 40.3723 52.8981 40.4229C52.9771 40.474 52.0208 44.4212 50.7476 49.2985C49.4866 54.1295 48.4548 58.1139 48.4548 58.1527C48.4548 58.7241 47.5202 56.4244 43.808 46.7181ZM60.3655 57.1409C60.3283 57.0747 60.3547 56.8634 60.4242 56.6712C60.4937 56.4791 66.9545 49.8933 74.7816 42.0362C82.6087 34.179 89.0357 27.68 89.0638 27.5939C89.0961 27.495 87.7052 27.4375 85.2777 27.4375C83.1673 27.4375 81.4035 27.3747 81.3581 27.2981C81.3128 27.2214 83.5933 22.1526 86.426 16.034C89.2586 9.91548 91.9464 4.09104 92.3989 3.09081C92.8513 2.09058 93.2943 1.29758 93.3832 1.32858C93.5538 1.38804 118.387 56.527 118.429 56.9404C118.451 57.1524 116.794 57.1858 104.481 57.2219C92.5662 57.2568 90.4817 57.2293 90.3276 57.0352C90.2283 56.91 88.3678 52.5263 86.1933 47.2936C82.7857 39.0937 82.1956 37.7795 81.9209 37.7795C81.6526 37.7795 74.3637 43.8266 73.1786 45.0324L72.8267 45.3905L73.125 45.9944C73.289 46.3266 74.7001 48.9415 76.2607 51.8053C77.8213 54.669 79.065 57.0682 79.0245 57.1366C78.93 57.2966 60.4556 57.3008 60.3655 57.1409Z" fill="#D0C52F"/>
<path d="M126.925 21.011C126.675 20.8583 126.657 20.2369 126.657 11.5753C126.657 3.96333 126.694 2.27072 126.865 2.12248C127.018 1.99018 132.439 1.95279 147.144 1.98259L167.215 2.02328L167.255 11.4732C167.286 18.9269 167.253 20.9502 167.101 21.0512C166.805 21.2479 127.249 21.2083 126.925 21.011ZM131.59 15.7878C131.825 15.5654 131.871 15.2702 131.871 13.9635C131.871 12.1838 131.996 11.9433 132.837 12.1083C133.471 12.2326 134.055 12.8762 134.999 14.4906C135.399 15.1744 135.866 15.8119 136.036 15.9072C136.496 16.1642 137.063 15.955 137.176 15.4876C137.301 14.9652 136.671 13.6107 135.849 12.6336L135.23 11.8984L135.856 11.5642C136.771 11.0764 137.114 10.4163 137.045 9.28095C137.002 8.57969 136.899 8.26181 136.614 7.9429C135.871 7.11024 135.498 7.01112 133.076 7.00217C129.937 6.99058 130.184 6.60656 130.184 11.5083C130.184 15.1981 130.201 15.4294 130.491 15.7325C130.864 16.1227 131.218 16.1405 131.59 15.7878ZM131.964 10.5083C131.913 10.3688 131.871 9.94178 131.871 9.55936C131.871 8.39869 131.916 8.35679 133.183 8.35679C134.496 8.35679 135.004 8.5528 135.241 9.14982C135.485 9.76726 135.228 10.3599 134.619 10.5819C133.839 10.8663 132.077 10.8175 131.964 10.5083ZM152.277 15.5549C153.127 15.0639 153.822 14.0443 153.843 13.2579C153.861 12.5929 153.621 12.3401 153.031 12.404C152.767 12.4327 152.565 12.6193 152.381 13.0067C151.931 13.951 151.401 14.4212 150.657 14.5379C149.111 14.7803 148.122 13.5874 148.128 11.4896C148.134 9.45929 148.942 8.35867 150.429 8.35739C151.255 8.35669 151.64 8.60953 152.269 9.56649C152.952 10.6037 153.798 10.5139 153.798 9.40417C153.798 8.66311 153.156 7.80909 152.24 7.3319C151.6 6.99832 151.219 6.91442 150.356 6.91723C148.617 6.9229 147.373 7.73666 146.688 9.31704C146.225 10.3841 146.24 12.4749 146.718 13.5851C147.167 14.6299 148.048 15.529 148.908 15.8218C149.89 16.1563 151.451 16.0326 152.277 15.5549ZM145.027 15.7005C145.271 15.4451 145.261 14.8534 145.009 14.6345C144.89 14.5315 143.926 14.4408 142.671 14.4144L140.534 14.3696L140.488 13.2616C140.456 12.4836 140.502 12.1142 140.642 12.0214C140.751 11.9487 141.638 11.8881 142.612 11.8868C144.481 11.8842 144.751 11.7908 144.751 11.1479C144.751 10.663 144.51 10.6016 142.604 10.6016C141.69 10.6016 140.833 10.5578 140.7 10.5043C140.352 10.3646 140.352 8.59379 140.7 8.45412C140.833 8.40059 141.795 8.35679 142.836 8.35679C144.353 8.35679 144.777 8.30668 144.97 8.10483C145.266 7.79507 145.269 7.69932 144.993 7.30513C144.791 7.01682 144.57 6.99388 141.991 6.99388C139.411 6.99388 139.19 7.01681 138.988 7.30513C138.815 7.55361 138.771 8.40058 138.771 11.505C138.771 15.3417 138.775 15.397 139.112 15.6433C139.389 15.8462 139.956 15.8929 142.148 15.8929C144.04 15.8929 144.898 15.8355 145.027 15.7005ZM162.463 15.2642C164.444 14.3579 165.319 11.7392 164.326 9.69074C163.092 7.1436 159.851 6.63827 157.994 8.70351C157.174 9.61459 156.948 10.2323 156.944 11.5636C156.942 12.5881 157.003 12.8765 157.36 13.5109C158.46 15.4673 160.493 16.1658 162.463 15.2642Z" fill="#686A6F"/>
<path d="M160.008 15.582C158.741 15.225 157.996 14.6419 157.36 13.5109C157.003 12.8764 156.942 12.588 156.944 11.5636C156.948 10.2323 157.174 9.61454 157.994 8.70346C159.851 6.63822 163.092 7.14355 164.326 9.69069C165.319 11.7392 164.444 14.3578 162.463 15.2641C161.701 15.613 160.616 15.7534 160.008 15.582Z" fill="#BA2729"/>
<path d="M130.491 15.7325C130.201 15.4294 130.184 15.198 130.184 11.5083C130.184 6.60651 129.937 6.99053 133.076 7.00212C135.498 7.01107 135.871 7.11019 136.614 7.94285C136.899 8.26176 137.002 8.57964 137.045 9.2809C137.114 10.4163 136.771 11.0764 135.856 11.5642L135.23 11.8984L135.849 12.6335C136.671 13.6107 137.301 14.9651 137.176 15.4876C137.063 15.955 136.496 16.1641 136.036 15.9071C135.866 15.8118 135.399 15.1743 134.999 14.4905C134.055 12.8762 133.471 12.2325 132.837 12.1083C131.996 11.9433 131.871 12.1838 131.871 13.9635C131.871 15.2701 131.825 15.5654 131.59 15.7878C131.218 16.1404 130.864 16.1226 130.491 15.7325ZM134.619 10.5819C135.228 10.3598 135.485 9.7672 135.241 9.14977C135.004 8.55275 134.496 8.35674 133.183 8.35674C131.916 8.35674 131.871 8.39864 131.871 9.55931C131.871 10.7069 131.926 10.7619 133.091 10.7619C133.66 10.7619 134.347 10.6809 134.619 10.5819ZM148.908 15.8217C148.048 15.529 147.167 14.6299 146.718 13.5851C146.24 12.4749 146.225 10.3841 146.688 9.31699C147.373 7.7366 148.617 6.92284 150.356 6.91718C151.219 6.91437 151.6 6.99827 152.24 7.33185C153.156 7.80904 153.798 8.66306 153.798 9.40412C153.798 10.5138 152.952 10.6037 152.269 9.56644C151.64 8.60948 151.255 8.35663 150.429 8.35734C148.942 8.35862 148.134 9.45924 148.128 11.4895C148.122 13.5873 149.111 14.7803 150.657 14.5379C151.401 14.4212 151.931 13.9509 152.381 13.0067C152.565 12.6192 152.767 12.4326 153.031 12.4039C153.621 12.34 153.861 12.5929 153.843 13.2579C153.822 14.0442 153.127 15.0639 152.277 15.5549C151.451 16.0326 149.89 16.1562 148.908 15.8217ZM139.112 15.6432C138.775 15.3969 138.771 15.3416 138.771 11.505C138.771 8.40053 138.815 7.55355 138.988 7.30508C139.19 7.01675 139.411 6.99383 141.991 6.99383C144.57 6.99383 144.792 7.01676 144.993 7.30508C145.269 7.69927 145.266 7.79501 144.97 8.10477C144.777 8.30662 144.353 8.35674 142.836 8.35674C141.795 8.35674 140.834 8.40054 140.7 8.45407C140.352 8.59374 140.352 10.3645 140.7 10.5042C140.834 10.5577 141.69 10.6015 142.604 10.6015C144.51 10.6015 144.751 10.6629 144.751 11.1478C144.751 11.7907 144.481 11.8841 142.612 11.8867C141.638 11.8881 140.751 11.9486 140.642 12.0213C140.502 12.1141 140.456 12.4835 140.488 13.2615L140.534 14.3696L142.671 14.4144C144.897 14.461 145.211 14.5532 145.211 15.1588C145.211 15.8388 144.986 15.8928 142.148 15.8928C139.956 15.8928 139.389 15.8461 139.112 15.6432Z" fill="#252525"/>
</g>
<defs>
<clipPath id="clip0_211_25">
<rect width="247" height="67" fill="white" transform="translate(0 0.5)"/>
</clipPath>
</defs>
</svg>
