<?xml version="1.0" encoding="UTF-8" standalone="no"?>
<svg
   width="25"
   height="26"
   viewBox="0 0 25 26"
   fill="none"
   version="1.1"
   id="svg334"
   sodipodi:docname="icon_wp.svg"
   inkscape:version="1.2.2 (732a01da63, 2022-12-09)"
   xmlns:inkscape="http://www.inkscape.org/namespaces/inkscape"
   xmlns:sodipodi="http://sodipodi.sourceforge.net/DTD/sodipodi-0.dtd"
   xmlns="http://www.w3.org/2000/svg"
   xmlns:svg="http://www.w3.org/2000/svg">
  <defs
     id="defs338" />
  <sodipodi:namedview
     id="namedview336"
     pagecolor="#ffffff"
     bordercolor="#000000"
     borderopacity="0.25"
     inkscape:showpageshadow="2"
     inkscape:pageopacity="0.0"
     inkscape:pagecheckerboard="0"
     inkscape:deskcolor="#d1d1d1"
     showgrid="false"
     inkscape:zoom="31.653846"
     inkscape:cx="12.526124"
     inkscape:cy="15.321993"
     inkscape:window-width="2560"
     inkscape:window-height="1009"
     inkscape:window-x="-8"
     inkscape:window-y="-8"
     inkscape:window-maximized="1"
     inkscape:current-layer="svg334" />
  <path
     d="m 15.999278,17.030508 h -8e-4 c -2.0883,-0.0013 -4.4833,-1.1095 -6.5708999,-3.0405 -0.0035,-0.0034 -0.007,-0.0067 -0.0105,-0.01 -2.03093,-1.9847 -3.19643,-4.2619497 -3.19778,-6.2478897 0,-0.73115 0.39381,-1.50001 1.10907,-2.16548 0.49207,-0.45788 1.21841,-0.91984 1.73221,-0.91984 0.7918,0 1.0022999,0.35594 1.3210999,0.89488 0.0777,0.13135 0.1658,0.2801 0.2796,0.4601 0.0631,0.09935 0.1501,0.22515 0.2421,0.35854 0.5849,0.84714 0.953,1.43953 0.7522,1.93493 -0.1576,0.38554 -0.5743,0.70189 -0.9773,1.00789 -0.1492,0.11322 -0.3631,0.27565 -0.4578,0.3737 0.0731,0.3868697 0.6061,1.2056697 1.5355,2.0892697 0.9281,0.8824 1.7883,1.389 2.1961,1.4596 0.1028,-0.0901 0.2722,-0.2919 0.3905,-0.4329 0.323,-0.3848 0.6571,-0.7827 1.0639,-0.9317 0.0938,-0.0344 0.1967,-0.052 0.3053,-0.052 0.4643,0 1.0097,0.3181 1.7294,0.7672 0.1401,0.0876 0.2726,0.1703 0.3778,0.2306 0.1886,0.1078 0.3452,0.1916 0.4831,0.2654 0.5666,0.3033 0.941,0.5036 0.941,1.2562 0,0.4884 -0.4862,1.179 -0.968,1.6467 -0.6997,0.6798 -1.5079,1.0546 -2.2759,1.0551 z m -5.8064,-3.7781 c 1.8568,1.7157 4.0269,2.7408 5.8054,2.7421 1.0756,-0.0013 2.0988,-1.328 2.1553,-1.6749 -4e-4,-0.0708 -0.0047,-0.108 -0.008,-0.1258 -0.0556,-0.0459 -0.2261,-0.1371 -0.3778,-0.2183 -0.1374,-0.0736 -0.3084,-0.165 -0.5114,-0.2812 -0.1236,-0.0708 -0.2642,-0.1587 -0.4133,-0.2518 -0.2823,-0.1761 -0.8497,-0.5302 -1.0913,-0.5896 -0.149,0.0992 -0.4104,0.4106 -0.5578,0.5861 -0.3738,0.4451 -0.6966,0.8296 -1.1517,0.8313 -1.1091,-0.0012 -2.6202,-1.3565 -3.0571,-1.7718 -0.4368,-0.4153 -1.8621999,-1.8523 -1.8633999,-2.9043697 0,-0.43569 0.4061,-0.7439 0.8764,-1.10077 0.1836999,-0.1393 0.5091999,-0.38647 0.6139999,-0.52764 -0.0626,-0.23015 -0.4346,-0.76905 -0.6197999,-1.03711 -0.0979,-0.14171 -0.1901,-0.27547 -0.2643,-0.39221 -0.1225,-0.19369 -0.2189,-0.35631 -0.2961,-0.48691 -0.0854,-0.14431 -0.1813,-0.30656 -0.2296,-0.35928 -0.0185,-0.00296 -0.0578,-0.00721 -0.1323,-0.00758 -0.3652,0.05328 -1.76123,1.02602 -1.76123,2.04892 0.00116,1.69169 1.07928,3.7552497 2.8839299,5.5208497 z"
     fill="#ffffff"
     id="path262" />
  <path
     d="m 1.9862481,21.762308 c -0.13737,0 -0.27279,-0.0494 -0.3763,-0.1432 -0.15721,-0.1426 -0.21034,-0.3606 -0.13484,-0.5544 l 1.79685,-4.6183 c -1.31588,-1.9585 -1.93208,-4.2876 -1.73792,-6.5888497 0.20468,-2.42596 1.30577,-4.70151 3.10007,-6.40745 2.02219,-1.92276 4.72977,-2.98170004 7.6239699,-2.98170004 2.9981,0 5.8312,1.12387004 7.9775,3.16484004 4.3545,4.14039 4.4409,10.7949597 0.1926,14.8348597 -2.0219,1.9224 -4.7294,2.9813 -7.6229,2.9813 h -2e-4 c -2.0976,0 -4.1401999,-0.5574 -5.9268599,-1.6147 l -4.6798,1.8874 c -0.06849,0.0274 -0.14087,0.0407 -0.21247,0.0407 z m 4.94404,-3.03 c 0.10507,0 0.20935,0.0288 0.29983,0.0853 1.66586,1.0434 3.5936599,1.5949 5.5752599,1.5949 2.6027,0 5.0363,-0.9509 6.8528,-2.6779 3.8236,-3.6355 3.7371,-9.6332297 -0.1926,-13.3695297 -1.9406,-1.84522 -4.5002,-2.86126 -7.2075,-2.86126 -2.6031999,0 -5.0372799,0.9511 -6.8533599,2.67831 -3.29642,3.13434 -3.7484,8.1427797 -1.0748,11.9088797 0.09826,0.1384 0.12025,0.313 0.05935,0.4696 l -1.45461,3.7385 3.78283,-1.5255 c 0.06829,-0.0276 0.14067,-0.0413 0.21266,-0.0413 z"
     fill="#ffffff"
     id="path264" />
</svg>
