<?xml version="1.0" encoding="UTF-8" standalone="no"?>
<svg
   width="156"
   height="65"
   viewBox="0 0 156 65"
   fill="none"
   version="1.1"
   id="svg217"
   sodipodi:docname="icon_RETIE.svg"
   xml:space="preserve"
   inkscape:version="1.2.2 (732a01da63, 2022-12-09)"
   xmlns:inkscape="http://www.inkscape.org/namespaces/inkscape"
   xmlns:sodipodi="http://sodipodi.sourceforge.net/DTD/sodipodi-0.dtd"
   xmlns="http://www.w3.org/2000/svg"
   xmlns:svg="http://www.w3.org/2000/svg"><defs
     id="defs221" /><sodipodi:namedview
     id="namedview219"
     pagecolor="#ffffff"
     bordercolor="#000000"
     borderopacity="0.25"
     inkscape:showpageshadow="2"
     inkscape:pageopacity="0.0"
     inkscape:pagecheckerboard="0"
     inkscape:deskcolor="#d1d1d1"
     showgrid="false"
     inkscape:zoom="4.3514263"
     inkscape:cx="133.28963"
     inkscape:cy="57.222616"
     inkscape:window-width="2560"
     inkscape:window-height="1009"
     inkscape:window-x="-8"
     inkscape:window-y="-8"
     inkscape:window-maximized="1"
     inkscape:current-layer="svg217" /><path
     style="fill:#f3e742;fill-opacity:1;stroke-width:0.481169"
     d="M 5.7490171,64.487439 C 0.57490054,63.022811 0,61.990484 0,38.719581 0,17.060852 0.57490054,16.312302 3.4494032,13.664577 L 5.1741166,12.490894 H 58.639949 112.10578 l 1.7247,1.100818 c 1.72472,1.245383 3.44942,4.563018 3.44942,6.31011 0,1.115584 0,1.120951 -0.5749,0.125768 -2.29961,-7.157182 3.4494,-6.497153 -57.490151,-6.497153 -57.4901474,0 -54.0407324,-0.223327 -56.3403463,3.240734 l -1.1498011,1.697102 v 20.01123 c 0,22.247064 0,22.044013 3.449415,24.228893 1.1498011,1.157827 114.9802834,1.868889 114.9802834,0.745553 3.44942,-1.227366 4.59922,-3.220614 5.17412,-9.381281 l 0.5749,-3.898291 v 4.471143 c 0,5.113653 -0.5749,7.091819 -3.44941,9.014826 C 120.7293,64.778736 7.4737187,65.563943 7.4737187,64.487439 Z M 120.7293,55.527869 c 0,-11.014197 -4.0243,-20.170223 -9.19842,-22.663868 l -2.2996,-0.907363 2.2996,-4.256436 2.2996,-4.256435 1.72472,0.776911 c 3.4494,1.878649 6.89881,6.738278 8.62352,13.093057 1.1498,2.930129 1.7247,3.909724 1.7247,1.885328 0,-6.057951 9.19842,-21.928434 17.24704,-28.999431 4.59921,-4.5857537 14.37253,-11.7907596 12.64783,-9.88594381 0,0.26528226 -2.8745,3.87384421 -6.32392,8.01902851 -13.22272,15.8545463 -17.24703,24.2346583 -20.69644,40.0003153 -1.14981,4.604288 -1.14981,4.657923 -4.02431,7.657117 -4.02432,4.505993 -4.02432,4.528106 -4.02432,-0.46228 z M 5.7490171,58.088049 c 0,-0.36441 0,-5.68558 0,-11.824816 V 35.100984 l 5.7490169,-0.144969 c 6.323906,-0.159338 8.62352,0.445597 10.348222,3.264401 2.299602,3.13347 1.724701,8.524673 -1.149801,11.099055 l -1.724702,1.538895 2.299602,3.296411 c 1.149801,1.813027 2.299602,3.58878 2.299602,3.946124 0,0.493244 -0.5749,0.649718 -2.874502,0.649718 H 17.82194 l -2.299602,-3.621898 c -2.874503,-5.115739 -4.024304,-5.120204 -4.024304,-0.01652 v 3.63841 H 8.6235198 c -1.7247016,0 -2.8745027,-0.227008 -2.8745027,-0.66257 z M 17.24704,44.196997 c 0,-0.738591 0,-1.340499 0,-2.079088 -0.574901,-1.125615 -0.574901,-1.148525 -4.024304,-1.165898 l -1.724702,-0.01164 v 2.148114 L 10.923122,45.2366 h 2.874514 c 2.299603,0 2.874503,-0.176665 3.449404,-1.039545 z m 9.198432,13.891052 c 0,-0.36441 0,-5.68558 0,-11.824816 V 35.100984 l 8.048619,-0.141669 8.62352,-0.141668 v 2.853978 2.853976 l -5.749017,0.146438 -5.174117,0.146439 v 1.299431 c 0,1.296325 0,1.299783 5.174117,1.446958 l 4.599216,0.147527 v 2.823577 2.82358 l -4.599216,0.147526 -5.174117,0.147528 v 1.559317 1.559316 l 5.174117,0.146441 5.749017,0.146435 v 2.842255 2.84225 h -8.048619 c -6.323918,0 -8.04862,-0.159554 -8.62352,-0.66257 z M 51.16623,49.654605 v -9.096013 h -3.449415 -2.874503 v -2.858747 -2.858748 h 9.198421 8.623531 v 2.834998 2.835 l -2.874514,0.153691 -2.874503,0.153692 v 8.96607 8.966071 H 54.040733 51.16623 Z M 65.538767,46.795858 V 34.791493 l 2.874503,0.154746 2.874514,0.154745 v 11.694874 11.694876 l -2.874514,0.154741 -2.874503,0.15474 z m 9.19842,0 V 34.841097 h 8.62352 8.048619 v 2.842254 2.84225 l -5.174104,0.146438 -5.174117,0.146439 v 1.429373 l -0.5749,1.429374 h 5.174116 4.599204 v 2.858746 2.858747 h -4.599204 -5.174116 l 0.5749,1.689261 v 1.689259 l 5.174117,0.146441 5.174104,0.146435 v 2.842255 2.84225 h -8.048619 -8.62352 z M 17.24704,29.957574 c -4.024304,-2.535007 -2.299603,-9.906357 2.299614,-9.906357 1.149801,0 1.724701,0.339975 2.299602,0.897787 1.149801,1.040288 0,1.231191 -1.149801,0.33382 -2.299603,-1.276023 -4.599216,1.068467 -4.599216,4.064123 0,3.215183 2.874514,5.275129 5.174116,3.758369 0.574901,-0.352182 0.574901,-0.358499 0.574901,-0.01828 0,1.472027 -2.874503,2.02283 -4.599216,0.870547 z m 6.898818,-4.472376 v -5.197721 h 3.449415 c 1.724701,0 2.874502,0.192006 2.874502,0.519772 -0.5749,0.285873 -1.724701,0.519771 -2.874502,0.519771 h -2.299614 v 1.819204 1.819202 h 2.299614 c 1.724701,0 2.299602,0.161391 2.299602,0.358644 0,0.197254 -1.149801,0.296861 -2.299602,0.221351 l -2.299614,-0.137293 v 2.117624 2.117624 h 2.299614 c 1.724701,0 2.874502,0.23101 2.874502,0.519773 0,0.297012 -1.149801,0.519771 -2.874502,0.519771 h -3.449415 z m 8.62352,4.90027 C 32.194477,30.1679 32.194477,27.806848 32.194477,25.138684 v -4.851207 h 2.874515 c 4.024303,0 5.749017,3.309427 2.874502,5.745205 l -1.149801,0.94253 1.149801,1.634827 c 0.574901,0.899155 1.149801,1.791497 0.574901,1.98298 0,0.191484 -0.574901,-0.11928 -0.574901,-0.690573 -2.874502,-4.120347 -4.599204,-4.523911 -4.599204,-1.119609 0,1.099014 -0.574912,1.820199 -0.574912,1.602631 z m 4.024315,-4.860453 C 39.668196,24.292291 38.518395,21.32702 35.643892,21.32702 H 33.34429 v 1.992461 c 0,2.798694 0.5749,3.399059 3.449403,2.205534 z m 6.898818,0.609899 V 21.32702 H 42.54271 c -1.149801,0 -1.724701,-0.233898 -1.724701,-0.519771 0,-0.300314 1.149801,-0.519772 3.449403,-0.519772 1.724702,0 3.449403,0.219458 3.449403,0.519772 0,0.285873 -1.149801,0.519771 -1.724701,0.519771 h -1.724702 v 4.807894 4.807893 z m 5.749017,4.20149 c -0.5749,-0.568305 0,-10.048927 0,-10.048927 0.574901,0 0.574901,2.079089 0.574901,5.197721 0,5.195413 0,5.500633 -0.574901,4.851206 z m 2.874503,-4.851206 v -5.197721 h 2.874515 c 2.299602,0 3.449403,0.222758 3.449403,0.519772 0,0.288762 -1.149801,0.519771 -2.874503,0.519771 h -2.299614 v 1.819204 1.819202 l 2.299614,0.08472 2.299602,0.08472 -2.299602,0.305109 -2.299614,0.305107 V 28.214 c -0.5749,4.573969 -1.149801,2.54708 -1.149801,-2.728795 z m 8.048619,0 c 0,-3.118632 0,-5.197721 0.574901,-5.197721 0,0 0.574901,2.079089 0.574901,5.197721 0,3.118634 -0.574901,5.197722 -0.574901,5.197722 -0.574901,0 -0.574901,-2.079088 -0.574901,-5.197722 z m 4.599216,3.678387 c -3.449414,-3.991488 0,-10.985392 4.024304,-8.871929 1.149813,0.352941 1.724714,0.872255 1.724714,1.154034 0,0.289605 -0.574901,0.343212 -1.149813,0.123315 -2.299602,-1.382572 -5.174105,-0.0088 -5.749006,3.245654 0,3.079085 2.874503,5.782578 5.749006,4.266834 1.149813,-0.755871 1.724713,-0.0627 0.574912,0.864266 -1.724713,1.260256 -4.024315,0.921356 -5.174117,-0.782174 z m 6.898819,0.86962 c 4.599204,-11.697144 4.599204,-11.794482 6.898818,-4.780684 1.724702,4.361879 2.299602,7.777763 0.5749,4.198138 -0.5749,-2.02609 -5.174116,-2.076358 -6.323917,-0.06717 -0.574901,1.286396 -1.149801,1.901189 -1.149801,0.649715 z m 6.323917,-3.373058 c 0,-0.721086 -1.724713,-4.809452 -1.724713,-4.811406 0,-0.0011 -0.574901,1.16754 -1.149801,2.596913 l -1.149801,2.598861 h 2.299602 c 0.574901,0 1.724713,-0.172966 1.724713,-0.384368 z m 4.599205,-1.316697 v -5.339472 l 2.874514,0.277369 C 93.13404,21.012832 91.984239,30.68292 84.51052,30.68292 h -1.724713 z m 5.749017,3.067854 c 2.299602,-2.70085 1.149801,-6.96342 -2.874503,-7.469052 l -2.299614,-0.270199 v 4.485661 4.485662 h 1.724714 c 1.149801,0 2.299602,-0.386176 3.449403,-1.232072 z m 5.749017,1.223945 c -4.599216,-4.166074 0,-12.340058 4.599204,-8.845854 2.874515,1.809389 2.874515,6.295087 0.574913,8.724038 -1.724714,1.469767 -4.024316,1.522561 -5.174117,0.121816 z m 4.599204,-1.511207 c 2.299615,-2.64327 1.149815,-7.316793 -2.299602,-7.316793 -1.149801,0 -3.449403,2.563601 -3.449403,4.093737 0,4.205907 3.449403,6.142808 5.749005,3.223056 z"
     id="path993" /></svg>
