<?xml version="1.0" encoding="UTF-8" standalone="no"?>
<svg
   width="60"
   height="63"
   viewBox="0 0 60 63"
   fill="none"
   version="1.1"
   id="svg220"
   sodipodi:docname="icon_ilumination.svg"
   inkscape:version="1.2.2 (732a01da63, 2022-12-09)"
   xmlns:inkscape="http://www.inkscape.org/namespaces/inkscape"
   xmlns:sodipodi="http://sodipodi.sourceforge.net/DTD/sodipodi-0.dtd"
   xmlns="http://www.w3.org/2000/svg"
   xmlns:svg="http://www.w3.org/2000/svg">
  <sodipodi:namedview
     id="namedview222"
     pagecolor="#ffffff"
     bordercolor="#000000"
     borderopacity="0.25"
     inkscape:showpageshadow="2"
     inkscape:pageopacity="0.0"
     inkscape:pagecheckerboard="0"
     inkscape:deskcolor="#d1d1d1"
     showgrid="false"
     inkscape:zoom="12.555556"
     inkscape:cx="30.066372"
     inkscape:cy="31.460177"
     inkscape:window-width="2560"
     inkscape:window-height="1009"
     inkscape:window-x="-8"
     inkscape:window-y="-8"
     inkscape:window-maximized="1"
     inkscape:current-layer="g213" />
  <g
     clip-path="url(#clip0_4_1034)"
     id="g213"
     style="fill:#000000;fill-opacity:1">
    <path
       d="M39.7788 5.1759C38.6737 5.1759 37.7809 6.09085 37.7809 7.21446C37.7809 8.3453 38.6742 9.2602 39.7788 9.2602C40.1081 9.2602 40.4302 9.1782 40.7084 9.02977C41.3087 8.70231 41.7329 8.07018 41.7696 7.33319V7.21434C41.7768 6.09077 40.8768 5.17578 39.7789 5.17578L39.7788 5.1759ZM39.7788 8.69502C38.9809 8.69502 38.3443 8.03281 38.3443 7.21433C38.3443 6.40317 38.9809 5.74095 39.7788 5.74095C40.569 5.74095 41.2133 6.40316 41.2133 7.21433C41.2133 8.03276 40.5696 8.69502 39.7788 8.69502Z"
       fill="#404047"
       id="path203"
       style="fill:#f3e742;fill-opacity:1" />
    <path
       d="M56.3764 18.5453C56.3764 16.3132 54.6056 14.4978 52.432 14.4978C51.5392 14.4978 50.7194 14.7952 50.0608 15.3163L43.4232 8.75432C43.6141 8.2779 43.7234 7.76464 43.7234 7.21397C43.7234 4.98968 41.9525 3.17432 39.7789 3.17432C37.6054 3.17432 35.8345 4.98968 35.8345 7.21397C35.8345 7.92808 36.0173 8.60538 36.3389 9.19288L27.6747 18.7836L23.3275 15.9863C22.6762 15.5695 21.6445 15.9863 21.0881 16.9012C20.5097 17.8385 20.5904 18.9174 21.2708 19.3564L23.5393 20.8148C21.7537 20.2123 19.8583 19.8848 17.8823 19.8848C11.3545 19.8848 5.29531 23.5005 2.061 29.3259L1.92215 29.5714L11.9992 35.3969C11.9773 35.62 11.9625 35.8583 11.9625 36.0887C11.9625 39.764 14.8824 42.7549 18.4683 42.7549C19.9395 42.7549 21.3004 42.2489 22.3836 41.401H22.3907L33.6093 47.8886L33.741 47.6349C35.2631 44.8604 36.0611 41.7129 36.0611 38.529C36.0611 33.4845 34.0998 28.9015 30.9166 25.5463C31.0774 25.6428 31.2678 25.6875 31.473 25.6875C32.0657 25.6875 32.7022 25.2635 33.1049 24.6085C33.6833 23.6562 33.6026 22.5851 32.9222 22.1533L29.4678 19.9362L37.7956 10.7105H37.8028C38.3811 11.0675 39.0539 11.2611 39.7788 11.2611C40.6644 11.2611 41.4837 10.9637 42.1417 10.4427L48.7793 17.0046H48.7864C48.5889 17.481 48.4791 17.9943 48.4791 18.5449C48.4791 20.2487 49.5108 21.7071 50.9671 22.2946C50.9819 22.2946 50.9962 22.3018 51.0039 22.3018L51.0325 58.9824H53.1105L53.0901 22.5184C54.9558 22.1987 56.3764 20.5464 56.3764 18.5453ZM18.469 42.1899C15.1902 42.1899 12.5266 39.4513 12.5266 36.0889C12.5266 35.955 12.5266 35.8283 12.5338 35.7095L21.8569 41.0959C20.8911 41.7804 19.7206 42.1899 18.469 42.1899ZM35.4978 38.529C35.4978 41.5199 34.7734 44.4883 33.3895 47.1149L22.8444 41.0217L22.3319 40.7248L12.5989 35.0929L12.0864 34.8018L2.68362 29.3629C5.85206 23.8571 11.6485 20.4573 17.8829 20.4573C27.5939 20.4573 35.4978 28.56 35.4978 38.529ZM32.629 22.63C33.0241 22.8905 33.0241 23.6566 32.629 24.3115C32.2487 24.9363 31.5534 25.2861 31.1655 25.0334L21.5718 18.8732C21.1696 18.6204 21.1619 17.8539 21.5647 17.1989C21.8572 16.708 22.3258 16.3805 22.7209 16.3805C22.8378 16.3805 22.9404 16.4101 23.0353 16.4697L27.7847 19.5203L29.0874 20.361L32.629 22.63ZM28.9847 19.6247L28.1578 19.0891L36.654 9.67696C36.8526 9.93748 37.0644 10.1679 37.3278 10.3911L28.9847 19.6247ZM41.7402 10.0418C41.1914 10.4585 40.511 10.6968 39.779 10.6968C39.2006 10.6968 38.6595 10.5478 38.1838 10.28C38.0153 10.1908 37.8545 10.0792 37.708 9.9676C37.4518 9.76676 37.2251 9.52854 37.0495 9.25349C36.925 9.09727 36.8229 8.92602 36.7422 8.74749C36.5155 8.28612 36.3915 7.76559 36.3915 7.21498C36.3915 5.30303 37.9137 3.74767 39.78 3.74767C41.6464 3.74767 43.1608 5.3025 43.1608 7.21498C43.1608 7.60162 43.1021 7.97371 42.9852 8.31625C42.9265 8.51709 42.8464 8.70289 42.7509 8.88193C42.5973 9.17203 42.4002 9.43982 42.1725 9.67803C42.0327 9.81089 41.8938 9.93749 41.7402 10.0418ZM42.5743 10.0714C42.8009 9.84096 42.9985 9.57266 43.1598 9.28255L49.6427 15.681C49.416 15.9192 49.2037 16.187 49.0434 16.4771L42.5743 10.0714ZM52.5472 58.5922H51.5814L51.5681 22.4736C51.8382 22.5478 52.1317 22.5852 52.4318 22.5852C52.4538 22.5852 52.4757 22.5852 52.4977 22.5779C52.513 22.5779 52.5196 22.5707 52.5345 22.5707L52.5472 58.5922ZM54.1659 21.521C54.1659 21.521 54.1588 21.5361 54.1506 21.5361C54.071 21.5807 53.9898 21.6253 53.902 21.67C53.829 21.7073 53.7484 21.7442 53.6677 21.7743C53.4773 21.8563 53.2808 21.9082 53.0751 21.9528C52.8704 21.9902 52.658 22.0125 52.4385 22.0125C51.926 22.0125 51.436 21.8936 51.004 21.685H50.9892C50.9811 21.6778 50.9739 21.6778 50.9673 21.6778C50.9305 21.6627 50.8933 21.6404 50.8575 21.6181C50.6452 21.5065 50.4476 21.3653 50.272 21.2164C50.199 21.1567 50.1337 21.0976 50.0745 21.0306C50.0454 21.0083 50.0234 20.986 50.0081 20.9637C49.9351 20.8967 49.8764 20.8298 49.8254 20.7628C49.7524 20.6736 49.6799 20.577 49.6212 20.48C49.5181 20.331 49.4303 20.1676 49.3507 19.9963C49.3353 19.9589 49.3216 19.9294 49.3062 19.892C49.2695 19.7877 49.2332 19.6839 49.197 19.5796C49.1613 19.4752 49.1311 19.3637 49.1163 19.2521C49.0576 19.0217 49.0367 18.7907 49.0367 18.5453C49.0367 18.1586 49.1026 17.7865 49.2195 17.4367C49.2771 17.2359 49.3578 17.0501 49.4527 16.871C49.6135 16.5809 49.8111 16.3131 50.0382 16.0822C50.1705 15.941 50.3088 15.8217 50.4624 15.7179C51.0194 15.3012 51.6993 15.0629 52.4307 15.0629C53.8652 15.0629 55.0944 15.9857 55.5772 17.2801C55.6063 17.3693 55.6359 17.4586 55.665 17.5478C55.7309 17.756 55.7748 17.9646 55.7967 18.1877C55.8049 18.3066 55.812 18.426 55.812 18.5448C55.812 18.686 55.8049 18.8349 55.7901 18.9761C55.7972 18.9833 55.7972 18.9911 55.7901 18.9984C55.6584 19.9657 55.1459 20.8137 54.3995 21.3644C54.3265 21.4174 54.2466 21.4691 54.1659 21.521Z"
       fill="#404047"
       id="path205"
       style="fill:#f3e742;fill-opacity:1" />
    <path
       d="M52.4312 16.4993C52.0871 16.4993 51.765 16.5886 51.4945 16.7298C51.327 16.8263 51.18 16.9456 51.0407 17.0718C50.7992 17.31 50.6241 17.6073 50.521 17.9348C50.4705 18.1206 50.4332 18.3292 50.4332 18.5451C50.4332 18.5747 50.4332 18.6121 50.4414 18.6417C50.4781 19.5047 51.034 20.2188 51.8017 20.4793C52.0003 20.5536 52.2121 20.5837 52.4311 20.5837C52.6358 20.5837 52.8482 20.5541 53.0386 20.4871C53.8364 20.2193 54.4281 19.4606 54.4281 18.5452C54.4291 17.4143 53.5292 16.4994 52.4312 16.4994L52.4312 16.4993ZM52.4312 20.0179C51.6772 20.0179 51.0626 19.4299 50.9967 18.6711C50.9896 18.6265 50.9896 18.5891 50.9896 18.5445C50.9896 17.9046 51.3765 17.369 51.9258 17.1609C52.0794 17.1013 52.2479 17.0644 52.4306 17.0644C53.2208 17.0644 53.8651 17.7266 53.8651 18.5451C53.8656 19.3563 53.2219 20.018 52.4311 20.018L52.4312 20.0179Z"
       fill="#404047"
       id="path207"
       style="fill:#f3e742;fill-opacity:1" />
    <path
       d="M55.7909 18.9997C55.674 19.9816 55.1467 20.8301 54.4004 21.3657C55.1467 20.8151 55.6592 19.9672 55.7909 18.9997Z"
       fill="#404047"
       id="path209"
       style="fill:#000000;fill-opacity:1" />
    <path
       d="M55.791 18.9771C55.8065 18.8359 55.8133 18.687 55.8133 18.5458C55.8133 18.427 55.806 18.3076 55.7977 18.1888C55.8133 18.3154 55.82 18.4415 55.82 18.5754C55.82 18.7093 55.8133 18.8432 55.791 18.9771Z"
       fill="#404047"
       id="path211"
       style="fill:#000000;fill-opacity:1" />
  </g>
  <defs
     id="defs218">
    <clipPath
       id="clip0_4_1034">
      <rect
         width="60"
         height="62"
         fill="white"
         transform="translate(0 0.611115)"
         id="rect215" />
    </clipPath>
  </defs>
</svg>
