<svg width="15" height="18" viewBox="0 0 15 18" fill="none" xmlns="http://www.w3.org/2000/svg">
<g clip-path="url(#clip0_212_183)">
<path fill-rule="evenodd" clip-rule="evenodd" d="M12.5856 12.8473C12.938 13.0386 13.2219 13.2471 13.4143 13.478C13.5503 13.6411 13.6383 13.8091 13.6383 13.9906C13.6383 14.1678 13.5544 14.3325 13.424 14.4918C13.2394 14.7173 12.9667 14.9227 12.6285 15.1106C11.4719 15.7527 9.6034 16.158 7.49996 16.158C5.39651 16.158 3.52779 15.7527 2.37142 15.1106C2.03322 14.9227 1.76055 14.7173 1.5759 14.4918C1.44551 14.3326 1.36158 14.1678 1.36158 13.9906C1.36158 13.8091 1.44962 13.6411 1.58561 13.478C1.77801 13.2471 2.06187 13.0386 2.41436 12.8473C2.66556 12.7113 2.76525 12.3845 2.63633 12.1179C2.50799 11.8519 2.19948 11.7463 1.9478 11.8828C0.895026 12.4533 0.338501 13.2222 0.338501 13.9906C0.338501 14.5871 0.657175 15.1746 1.28792 15.6703C2.45373 16.586 4.79561 17.2417 7.50004 17.2417C10.2045 17.2417 12.5464 16.586 13.7122 15.6703C14.3429 15.1746 14.6616 14.5871 14.6616 13.9906C14.6616 13.2222 14.1051 12.4533 13.0523 11.8828C12.8006 11.7463 12.4921 11.8519 12.3637 12.1179C12.2348 12.3845 12.3345 12.7113 12.5857 12.8473H12.5856ZM7.49998 1.25723C4.75913 1.25723 2.53397 3.61428 2.53397 6.51752C2.53397 7.84772 3.26906 9.53558 4.18013 11.0706C5.48809 13.2738 7.1225 15.1689 7.1225 15.1689C7.21909 15.2815 7.35623 15.3455 7.49998 15.3455C7.64374 15.3455 7.78087 15.2815 7.87747 15.1689C7.87747 15.1689 9.51188 13.274 10.8198 11.0706C11.7309 9.53555 12.466 7.84769 12.466 6.51752C12.466 3.61425 10.2408 1.25723 7.49998 1.25723ZM7.49998 2.34093C9.67607 2.34093 11.4429 4.21249 11.4429 6.51752C11.4429 7.68467 10.7528 9.14708 9.95329 10.4941C9.075 11.9744 8.04268 13.3106 7.49995 13.9818C6.95725 13.3105 5.92491 11.9743 5.04661 10.4941C4.24709 9.14696 3.55698 7.68458 3.55698 6.51752C3.55698 4.21249 5.32384 2.34093 7.49992 2.34093H7.49998ZM7.49998 3.64137C6.22365 3.64137 5.18777 4.73864 5.18777 6.09061C5.18777 7.44245 6.22365 8.53971 7.49998 8.53971C8.77631 8.53971 9.81219 7.44245 9.81219 6.09061C9.81219 4.73864 8.77631 3.64137 7.49998 3.64137ZM7.49998 4.72508C8.21158 4.72508 8.78912 5.33684 8.78912 6.09061C8.78912 6.84424 8.21158 7.45601 7.49998 7.45601C6.78839 7.45601 6.21085 6.84424 6.21085 6.09061C6.21085 5.33684 6.78839 4.72508 7.49998 4.72508Z" fill="white"/>
</g>
<defs>
<clipPath id="clip0_212_183">
<rect width="14" height="17.1111" fill="white" transform="translate(0.5 0.444443)"/>
</clipPath>
</defs>
</svg>
