<?xml version="1.0" encoding="UTF-8" standalone="no"?>
<!-- Created with Inkscape (http://www.inkscape.org/) -->

<svg
   width="172.12929mm"
   height="164.80498mm"
   viewBox="0 0 172.12929 164.80498"
   version="1.1"
   id="svg2095"
   xml:space="preserve"
   xmlns:inkscape="http://www.inkscape.org/namespaces/inkscape"
   xmlns:sodipodi="http://sodipodi.sourceforge.net/DTD/sodipodi-0.dtd"
   xmlns="http://www.w3.org/2000/svg"
   xmlns:svg="http://www.w3.org/2000/svg"><sodipodi:namedview
     id="namedview2097"
     pagecolor="#ffffff"
     bordercolor="#000000"
     borderopacity="0.25"
     inkscape:showpageshadow="2"
     inkscape:pageopacity="0.0"
     inkscape:pagecheckerboard="0"
     inkscape:deskcolor="#d1d1d1"
     inkscape:document-units="mm"
     showgrid="false" /><defs
     id="defs2092" /><g
     inkscape:label="Capa 1"
     inkscape:groupmode="layer"
     id="layer1"
     transform="translate(-18.935353,-54.729956)"><path
       style="fill:#f3e742;fill-opacity:1;stroke-width:0.329446"
       d="m 99.94951,219.33869 c -2.631451,-0.81298 -4.426711,-2.32464 -5.596012,-4.71199 -0.697205,-1.42348 -0.790151,-2.08917 -0.793051,-5.68019 -0.0038,-3.96698 0.0187,-4.08881 0.883988,-4.91794 l 0.887282,-0.8502 H 110.4529 c 15.47781,0 16.0226,-0.0405 17.0014,-1.262 0.56984,-0.71118 0.53074,-2.32845 -0.0765,-3.15901 -0.29241,-0.40003 -1.30185,-0.91587 -2.37989,-1.21617 -1.5953,-0.44438 -1.94288,-0.68378 -2.35071,-1.61908 -0.79314,-1.8189 0.26422,-3.41983 2.52979,-3.83026 1.59077,-0.2882 2.7086,-1.36274 2.7086,-2.60368 0,-1.52088 -0.80345,-2.33099 -2.88768,-2.91157 -1.5953,-0.44438 -1.94288,-0.68378 -2.35071,-1.61908 -0.84151,-1.92984 0.2077,-3.47783 2.62876,-3.87846 3.41666,-0.56537 3.41666,-4.89916 0,-5.46453 -2.59435,-0.4293 -3.24487,-1.61939 -2.78499,-5.09497 0.69632,-5.26243 2.46193,-7.8058 8.43769,-12.15452 5.23236,-3.80773 12.25153,-10.50863 15.13337,-14.44714 7.20093,-9.84133 10.48395,-20.29104 10.51063,-33.45483 0.0114,-5.38382 -0.35025,-8.55816 -1.4676,-12.899515 -4.00562,-15.563398 -16.37875,-28.843288 -32.03561,-34.383356 -11.54999,-4.086874 -24.589111,-4.086874 -36.139081,0 -15.656877,5.540068 -28.030006,18.819958 -32.035623,34.383356 -1.117352,4.341355 -1.478503,7.515695 -1.467589,12.899515 0.02671,13.16379 3.309684,23.6135 10.510618,33.45483 2.77746,3.79586 9.889671,10.64327 14.474335,13.93543 1.943602,1.39566 3.970878,2.91336 4.505049,3.37269 1.591648,1.36861 3.452391,4.38404 4.083197,6.61701 l 0.59094,2.09188 13.613794,0.0942 13.61378,0.0942 0.81194,0.90483 c 0.97699,1.08875 1.04322,2.45851 0.16892,3.49365 l -0.64301,0.76133 -15.709337,0.16125 -15.709342,0.16124 -0.811915,0.90483 c -0.45285,0.50466 -0.811915,1.31677 -0.811915,1.83632 0,0.51953 0.359065,1.33166 0.811915,1.83632 l 0.811915,0.90483 15.709342,0.16124 15.709337,0.16124 0.64301,0.76132 c 0.87429,1.03515 0.80807,2.40491 -0.16889,3.49366 l -0.81192,0.90483 -15.709334,0.16124 -15.709354,0.16124 -0.643004,0.76133 c -0.928712,1.09959 -0.831263,2.66533 0.225096,3.61668 l 0.868113,0.78181 15.642573,0.16124 15.64258,0.16124 0.64609,0.80622 c 0.87868,1.09643 0.82327,2.36319 -0.15086,3.44877 l -0.81194,0.90482 -15.709268,0.16125 -15.709291,0.16124 -0.643055,0.76132 c -0.824025,0.97557 -0.824712,2.63884 -0.0013,3.48558 0.352883,0.36294 1.309464,0.82103 2.12573,1.01798 1.859268,0.4486 2.752147,1.36367 2.752147,2.82053 0,2.44339 -2.840565,3.29454 -6.192595,1.85553 -3.041619,-1.30575 -4.766409,-3.8003 -4.978111,-7.19979 -0.115372,-1.85356 -0.01018,-2.31446 0.90869,-3.98213 1.030003,-1.86922 1.033717,-1.89354 0.418201,-2.74114 -1.70122,-2.34269 -1.87036,-5.50881 -0.439482,-8.22698 l 0.957511,-1.81913 -0.957612,-1.81913 c -1.239605,-2.35482 -1.293017,-4.73312 -0.158735,-7.06722 0.777952,-1.60082 3.26758,-4.01317 4.141748,-4.01317 0.577673,0 0.560857,-0.56969 -0.06716,-2.27534 -0.787467,-2.13865 -1.84684,-3.23768 -6.006561,-6.23146 -17.3452,-12.48344 -26.214778,-27.99724 -27.446535,-48.00687 -1.060187,-17.222556 4.617241,-32.122423 16.623572,-43.62695 8.901975,-8.529916 19.697703,-13.763353 32.317693,-15.666614 3.468653,-0.523119 13.022503,-0.523119 16.491163,0 12.61999,1.903261 23.41571,7.136698 32.31769,15.666614 12.00633,11.504527 17.68376,26.404394 16.62356,43.62695 -1.21394,19.72032 -10.15855,35.57935 -26.79376,47.50606 -4.70016,3.36981 -5.73057,4.37584 -6.49989,6.34608 -0.80857,2.07077 -0.84057,2.66157 -0.14416,2.66157 0.91666,0 4.00403,3.27106 4.44879,4.7135 0.69625,2.25801 0.51662,4.34389 -0.54831,6.36689 l -0.95762,1.81913 0.95762,1.81913 c 1.43087,2.71817 1.26175,5.88429 -0.43949,8.22698 -0.61496,0.84683 -0.61117,0.87312 0.38803,2.69326 2.23462,4.07051 0.762,8.76226 -3.44881,10.98795 -1.7115,0.90464 -1.94428,0.93849 -7.23738,1.05262 l -5.46901,0.11798 -0.004,2.14366 c -0.005,3.49731 -1.73545,6.29996 -4.87233,7.89292 -1.16484,0.59152 -1.99874,0.69618 -6.06239,0.76082 -2.59146,0.0412 -5.09136,-0.0423 -5.55531,-0.18566 z m 9.78815,-6.13838 c 0.85212,-0.81652 0.98377,-1.18332 0.98377,-2.74115 v -1.79849 h -5.72142 -5.721425 v 1.79849 c 0,1.55783 0.131641,1.92463 0.983775,2.74115 0.96972,0.92919 1.03737,0.94266 4.73765,0.94266 3.70027,0 3.76792,-0.0134 4.73765,-0.94266 z M 95.360083,161.58708 c -1.855172,-0.73523 -1.802931,-0.11616 -1.802931,-21.36563 v -19.60001 l -4.291057,-0.006 c -5.59238,-0.009 -8.153432,-0.3874 -10.683332,-1.58081 -8.542606,-4.02975 -10.560914,-14.9194 -4.00914,-21.631035 1.030231,-1.055355 2.483051,-2.051877 4.126407,-2.83037 2.197828,-1.041156 2.913222,-1.216854 5.359869,-1.316373 4.551197,-0.185107 7.860665,0.996034 10.86981,3.8794 1.948779,1.867343 3.478862,4.665958 4.005356,7.326068 0.188932,0.95463 0.34352,3.74755 0.34352,6.2065 v 4.47082 h 5.721425 5.72142 v -4.47082 c 0,-2.45895 0.15458,-5.25187 0.34353,-6.2065 0.52647,-2.66011 2.05656,-5.458725 4.00534,-7.326068 3.00913,-2.883378 6.31861,-4.064507 10.86981,-3.8794 2.44663,0.09946 3.16204,0.275217 5.35986,1.316373 1.64336,0.778493 3.09619,1.775015 4.12641,2.83037 6.55176,6.711635 4.53347,17.601285 -4.00914,21.631035 -2.5299,1.1934 -5.09094,1.57237 -10.68332,1.58081 l -4.29107,0.006 v 19.65379 19.65378 l -0.79777,0.8887 c -1.03165,1.14924 -2.90087,1.22877 -4.0056,0.17042 l -0.74977,-0.71829 -0.0917,-19.82419 -0.0917,-19.82421 h -5.70637 -5.706376 l -0.09171,19.82421 c -0.08942,19.33791 -0.108121,19.83973 -0.764781,20.45764 -0.826683,0.77799 -2.116304,1.06457 -3.077108,0.68379 z m -1.802931,-50.98121 c 0,-2.49329 -0.160312,-5.14173 -0.356266,-5.8854 -1.496832,-5.680836 -9.117837,-8.00275 -13.762654,-4.19313 -3.449886,2.82957 -4.066534,8.08389 -1.328074,11.31624 2.16085,2.55056 4.452069,3.24385 10.819375,3.2738 l 4.627619,0.0218 z m 35.001658,3.68474 c 1.67491,-0.73437 3.4778,-2.3431 4.28663,-3.82497 0.28966,-0.53068 0.59758,-1.91478 0.68428,-3.07576 0.20545,-2.75147 -0.73488,-4.96759 -2.87307,-6.77103 -4.64855,-3.920802 -12.34386,-1.643108 -13.85752,4.10162 -0.19595,0.74367 -0.35628,3.4073 -0.35628,5.91919 v 4.56706 l 5.30074,-0.12603 c 4.45234,-0.10579 5.54311,-0.23231 6.81522,-0.79008 z M 19.919314,111.58286 c -1.533619,-1.36907 -1.233817,-3.5191 0.615745,-4.41588 1.287611,-0.6243 15.518889,-0.57228 16.797761,0.0614 1.142538,0.56613 1.807586,2.12175 1.374121,3.2142 -0.675733,1.70301 -1.18108,1.79416 -9.947904,1.79416 -7.678919,0 -8.145927,-0.0346 -8.839723,-0.6539 z m 152.445186,0.13762 c -1.69658,-1.13867 -1.53187,-3.58305 0.30268,-4.49208 1.27888,-0.6337 15.51015,-0.68572 16.79777,-0.0614 1.84956,0.89678 2.14936,3.04681 0.61574,4.41587 -0.69381,0.61935 -1.16082,0.65391 -8.83974,0.65391 -6.88885,0 -8.22282,-0.0777 -8.87647,-0.51629 z M 36.342937,88.558458 c -1.573395,-0.571926 -4.677203,-1.674677 -6.897342,-2.450557 -2.220151,-0.775882 -4.378304,-1.738082 -4.795907,-2.138224 -1.623258,-1.555417 -0.362334,-4.304216 1.974436,-4.304216 1.76103,0 14.803125,4.712639 15.692646,5.670395 0.842049,0.906631 0.952842,1.759822 0.365717,2.816116 -1.001153,1.801192 -2.277532,1.883025 -6.33955,0.406486 z m 131.900083,0.69077 c -1.43344,-1.054588 -1.67,-2.712843 -0.5598,-3.924461 0.88964,-0.970907 13.84443,-5.647319 15.66508,-5.654768 2.05734,-0.0084 3.39072,2.1358 2.41475,3.883181 -0.47811,0.856014 -1.24452,1.188908 -8.7754,3.811643 -6.73113,2.344205 -7.80504,2.575628 -8.74463,1.884405 z M 45.0694,64.952288 c -3.226163,-2.593824 -6.049696,-5.024577 -6.274524,-5.401673 -1.392642,-2.335913 1.531634,-5.022973 3.872131,-3.558022 1.136139,0.711129 10.80626,8.537795 11.567066,9.361988 1.61761,1.752398 0.384746,4.313752 -2.07635,4.313752 -1.082575,0 -1.89421,-0.540006 -7.088323,-4.716045 z m 110.81376,4.058507 c -1.04659,-0.934291 -1.09973,-2.591842 -0.11728,-3.656214 0.66478,-0.72017 10.2916,-8.535503 11.48736,-9.325771 1.21146,-0.800641 2.28462,-0.676714 3.40067,0.392707 1.04338,0.999754 1.22089,2.006987 0.55116,3.127166 -0.22483,0.376034 -3.05203,2.806788 -6.2827,5.401674 -5.18426,4.164026 -6.01653,4.717976 -7.08833,4.717976 -0.75691,0 -1.49185,-0.247702 -1.95094,-0.657538 z"
       id="path3317" /></g></svg>
