<svg width="21" height="16" viewBox="0 0 21 16" fill="none" xmlns="http://www.w3.org/2000/svg">
<path d="M17.0172 9.12715C16.1117 9.12715 15.2751 9.60371 14.8223 10.3771C14.3696 11.1505 14.3696 12.1037 14.8223 12.8771C15.2751 13.6505 16.1117 14.127 17.0172 14.127H17.7414C17.9413 14.127 18.1034 13.9671 18.1034 13.7699C18.1034 13.5727 17.9413 13.4128 17.7414 13.4128H17.0172C16.5371 13.4128 16.0767 13.2246 15.737 12.8898C15.3976 12.5549 15.2069 12.1006 15.2069 11.6271C15.2069 11.1536 15.3976 10.6994 15.737 10.3643C16.0766 10.0295 16.5371 9.84142 17.0172 9.84142C17.4973 9.84142 17.9578 10.0296 18.2974 10.3643C18.6369 10.6993 18.8276 11.1536 18.8276 11.6271C18.8276 11.8243 18.6654 11.9842 18.4655 11.9842C18.2656 11.9842 18.1034 11.8243 18.1034 11.6271V10.9128C18.1038 10.7677 18.0147 10.6368 17.8784 10.5822C17.7422 10.5273 17.5859 10.5594 17.4832 10.6633C17.3381 10.5933 17.1787 10.5565 17.0172 10.5557C16.6584 10.5536 16.3217 10.7263 16.1175 11.0173C15.9134 11.3082 15.868 11.68 15.9963 12.0104C16.1248 12.3409 16.4103 12.5876 16.7593 12.6694C17.1084 12.7513 17.476 12.6579 17.7414 12.4198C17.9494 12.6072 18.2233 12.7068 18.5049 12.6981C18.7863 12.6891 19.0532 12.5723 19.2488 12.3723C19.4442 12.1722 19.553 11.9049 19.5517 11.6271C19.5509 10.9644 19.2836 10.329 18.8085 9.86026C18.3333 9.3917 17.6892 9.12799 17.0172 9.12718L17.0172 9.12715ZM17.0172 11.9842C16.8708 11.9842 16.7387 11.8972 16.6828 11.7637C16.6267 11.6303 16.6576 11.4768 16.7612 11.3745C16.8648 11.2723 17.0205 11.2419 17.1557 11.2972C17.291 11.3524 17.3793 11.4826 17.3793 11.6271C17.379 11.8242 17.217 11.9839 17.0172 11.9842Z" fill="white"/>
<path d="M17.0172 7.69856C15.961 7.69856 14.9479 8.11247 14.201 8.84919C13.4541 9.58595 13.0345 10.5851 13.0345 11.627C13.0345 12.669 13.4541 13.6681 14.201 14.4049C14.9479 15.1417 15.9609 15.5555 17.0172 15.5555C18.0736 15.5555 19.0865 15.1416 19.8335 14.4049C20.5804 13.6681 21 12.669 21 11.627C20.9987 10.5854 20.5788 9.58709 19.8322 8.8505C19.0854 8.11406 18.0732 7.69987 17.0172 7.69856ZM17.0172 14.8413C16.153 14.8413 15.3241 14.5026 14.7131 13.8998C14.1019 13.2971 13.7586 12.4796 13.7586 11.627C13.7586 10.7745 14.1019 9.95696 14.7131 9.35428C15.3241 8.75144 16.153 8.41283 17.0172 8.41283C17.8815 8.41283 18.7104 8.75147 19.3214 9.35428C19.9326 9.95696 20.2759 10.7745 20.2759 11.627C20.2749 12.4792 19.9313 13.2962 19.3204 13.8988C18.7094 14.5013 17.8812 14.8403 17.0172 14.8413Z" fill="white"/>
<path d="M11.9486 13.4128H1.23637L7.76106 6.97698L9.55572 8.33871C9.68584 8.4374 9.86688 8.4374 9.99699 8.33871L11.7917 6.97698L13.141 8.30793V8.30809C13.2831 8.44345 13.5089 8.44154 13.6486 8.30363C13.7882 8.16587 13.7901 7.94314 13.6531 7.80298L12.3705 6.53787L18.8281 1.63798V6.62685C18.8281 6.82407 18.9903 6.98398 19.1902 6.98398C19.3902 6.98398 19.5523 6.82407 19.5523 6.62685V0.912692C19.5523 0.817988 19.5141 0.727108 19.4462 0.660147C19.3784 0.593185 19.2862 0.555557 19.1902 0.555557H0.362618C0.266606 0.555557 0.174471 0.593184 0.106584 0.660147C0.0386969 0.727109 0.000549316 0.817988 0.000549316 0.912692V8.76966C0.000549316 8.96688 0.162674 9.12679 0.362618 9.12679C0.562563 9.12679 0.724688 8.96688 0.724688 8.76966V1.63798L7.18235 6.53787L0.724688 12.9075V11.6268C0.724688 11.4296 0.562563 11.2696 0.362618 11.2696C0.162674 11.2696 0.000549316 11.4296 0.000549316 11.6268V13.7696C0.000549316 13.8643 0.0386961 13.9552 0.106584 14.0221C0.174472 14.0891 0.266606 14.1267 0.362618 14.1267H11.9488C12.1488 14.1267 12.3109 13.9668 12.3109 13.7696C12.3109 13.5724 12.1488 13.4124 11.9488 13.4124L11.9486 13.4128ZM9.77624 7.60513L1.42713 1.27017H18.1258L9.77624 7.60513Z" fill="white"/>
<path d="M0.724138 10.1985C0.724138 10.3957 0.562014 10.5556 0.362069 10.5556C0.162124 10.5556 0 10.3957 0 10.1985C0 10.0013 0.162124 9.84137 0.362069 9.84137C0.562014 9.84137 0.724138 10.0013 0.724138 10.1985Z" fill="white"/>
</svg>
